<svg width="3436" height="2229" viewBox="0 0 3436 2229" fill="none" xmlns="http://www.w3.org/2000/svg">
<mask id="mask0_602_487" style="mask-type:alpha" maskUnits="userSpaceOnUse" x="0" y="0" width="3437" height="2229">
<line x1="0.500061" y1="12.9038" x2="0.499964" y2="2229" stroke="white"/>
<line x1="101.559" y1="12.9038" x2="101.559" y2="2229" stroke="white"/>
<line x1="202.618" y1="12.9038" x2="202.618" y2="2229" stroke="white"/>
<line x1="303.677" y1="12.9038" x2="303.677" y2="2229" stroke="white"/>
<line x1="404.736" y1="12.9038" x2="404.736" y2="2229" stroke="white"/>
<line x1="505.795" y1="12.9038" x2="505.795" y2="2229" stroke="white"/>
<line x1="606.854" y1="12.9038" x2="606.854" y2="2229" stroke="white"/>
<line x1="707.911" y1="12.9038" x2="707.911" y2="2229" stroke="white"/>
<line x1="808.971" y1="12.9038" x2="808.971" y2="2229" stroke="white"/>
<line x1="910.03" y1="12.9038" x2="910.03" y2="2229" stroke="white"/>
<line x1="1011.09" y1="12.9038" x2="1011.09" y2="2229" stroke="white"/>
<line x1="1112.15" y1="12.9038" x2="1112.15" y2="2229" stroke="white"/>
<line x1="1213.21" y1="12.9038" x2="1213.21" y2="2229" stroke="white"/>
<line x1="1314.26" y1="12.9038" x2="1314.26" y2="2229" stroke="white"/>
<line x1="1415.32" y1="12.9038" x2="1415.32" y2="2229" stroke="white"/>
<line x1="1516.38" y1="12.9038" x2="1516.38" y2="2229" stroke="white"/>
<line x1="1617.44" y1="12.9038" x2="1617.44" y2="2229" stroke="white"/>
<line x1="1718.5" y1="12.9038" x2="1718.5" y2="2229" stroke="white"/>
<line x1="1718.5" y1="1" x2="1718.5" y2="2217.1" stroke="white"/>
<line x1="1819.56" y1="1" x2="1819.56" y2="2217.1" stroke="white"/>
<line x1="1920.62" y1="1" x2="1920.62" y2="2217.1" stroke="white"/>
<line x1="2021.68" y1="1" x2="2021.68" y2="2217.1" stroke="white"/>
<line x1="2122.74" y1="1" x2="2122.74" y2="2217.1" stroke="white"/>
<line x1="2223.8" y1="1" x2="2223.8" y2="2217.1" stroke="white"/>
<line x1="2324.85" y1="1" x2="2324.85" y2="2217.1" stroke="white"/>
<line x1="2425.91" y1="1" x2="2425.91" y2="2217.1" stroke="white"/>
<line x1="2526.97" y1="1" x2="2526.97" y2="2217.1" stroke="white"/>
<line x1="2628.03" y1="1" x2="2628.03" y2="2217.1" stroke="white"/>
<line x1="2729.09" y1="1" x2="2729.09" y2="2217.1" stroke="white"/>
<line x1="2830.15" y1="1" x2="2830.15" y2="2217.1" stroke="white"/>
<line x1="2931.21" y1="1" x2="2931.21" y2="2217.1" stroke="white"/>
<line x1="3032.26" y1="1" x2="3032.26" y2="2217.1" stroke="white"/>
<line x1="3133.32" y1="1" x2="3133.32" y2="2217.1" stroke="white"/>
<line x1="3234.38" y1="1" x2="3234.38" y2="2217.1" stroke="white"/>
<line x1="3335.44" y1="1" x2="3335.44" y2="2217.1" stroke="white"/>
<line x1="4.37114e-08" y1="1111.5" x2="3424.12" y2="1111.5" stroke="white"/>
<line x1="4.37114e-08" y1="1212.5" x2="3424.12" y2="1212.5" stroke="white"/>
<line x1="4.37114e-08" y1="1313.5" x2="3424.12" y2="1313.5" stroke="white"/>
<line x1="4.37114e-08" y1="1414.5" x2="3424.12" y2="1414.5" stroke="white"/>
<line x1="4.37114e-08" y1="1515.5" x2="3424.12" y2="1515.5" stroke="white"/>
<line x1="4.37114e-08" y1="1616.5" x2="3424.12" y2="1616.5" stroke="white"/>
<line x1="4.37114e-08" y1="1717.5" x2="3424.12" y2="1717.5" stroke="white"/>
<line x1="4.37114e-08" y1="1818.5" x2="3424.12" y2="1818.5" stroke="white"/>
<line x1="4.37114e-08" y1="1919.5" x2="3424.12" y2="1919.5" stroke="white"/>
<line x1="4.37114e-08" y1="2020.5" x2="3424.12" y2="2020.5" stroke="white"/>
<line x1="4.37114e-08" y1="2121.5" x2="3424.12" y2="2121.5" stroke="white"/>
<line x1="4.37114e-08" y1="2222.5" x2="3424.12" y2="2222.5" stroke="white"/>
<line x1="4.37114e-08" y1="0.5" x2="3424.12" y2="0.500299" stroke="white"/>
<line x1="4.37114e-08" y1="101.5" x2="3424.12" y2="101.501" stroke="white"/>
<line x1="4.37114e-08" y1="202.5" x2="3424.12" y2="202.501" stroke="white"/>
<line x1="4.37114e-08" y1="303.501" x2="3424.12" y2="303.501" stroke="white"/>
<line x1="4.37114e-08" y1="404.501" x2="3424.12" y2="404.501" stroke="white"/>
<line x1="4.37114e-08" y1="505.501" x2="3424.12" y2="505.502" stroke="white"/>
<line x1="4.37114e-08" y1="606.501" x2="3424.12" y2="606.502" stroke="white"/>
<line x1="4.37114e-08" y1="707.502" x2="3424.12" y2="707.502" stroke="white"/>
<line x1="4.37114e-08" y1="808.502" x2="3424.12" y2="808.502" stroke="white"/>
<line x1="4.37114e-08" y1="909.502" x2="3424.12" y2="909.503" stroke="white"/>
<line x1="4.37114e-08" y1="1010.5" x2="3424.12" y2="1010.5" stroke="white"/>
<line x1="4.37114e-08" y1="1111.5" x2="3424.12" y2="1111.5" stroke="white"/>
</mask>
<g mask="url(#mask0_602_487)">
<rect y="-5" width="3424" height="2234" fill="url(#paint0_radial_602_487)" fill-opacity="0.25"/>
</g>
<defs>
<radialGradient id="paint0_radial_602_487" cx="0" cy="0" r="1" gradientUnits="userSpaceOnUse" gradientTransform="translate(1712 1113) rotate(90) scale(1116 1712)">
<stop stop-color="#19A7CE"/>
<stop offset="1" stop-color="#146C94"/>
</radialGradient>
</defs>
</svg>
