<svg width="46" height="45" viewBox="0 0 46 45" fill="none" xmlns="http://www.w3.org/2000/svg">
<path d="M36.3172 9.90029C33.8501 8.75022 31.179 7.91548 28.3965 7.43319C28.3721 7.43241 28.3479 7.43699 28.3254 7.4466C28.303 7.45622 28.2829 7.47064 28.2667 7.48884C27.9328 8.10098 27.5432 8.89861 27.2835 9.51075C24.3323 9.06556 21.331 9.06556 18.3797 9.51075C18.12 8.88006 17.7305 8.10098 17.378 7.48884C17.3595 7.45174 17.3038 7.43319 17.2482 7.43319C14.4657 7.91548 11.8131 8.75022 9.32749 9.90029C9.30894 9.90029 9.29039 9.91884 9.27184 9.93739C4.22634 17.4871 2.83511 24.8328 3.52145 32.1042C3.52145 32.1413 3.54 32.1784 3.5771 32.197C6.91604 34.6455 10.1251 36.1295 13.2971 37.1126C13.3528 37.1312 13.4084 37.1126 13.427 37.0755C14.1689 36.0553 14.8367 34.9794 15.4118 33.8479C15.4489 33.7737 15.4118 33.6995 15.3376 33.6809C14.2802 33.2728 13.2786 32.7906 12.2954 32.2341C12.2212 32.197 12.2212 32.0857 12.2769 32.03C12.4809 31.8816 12.685 31.7147 12.889 31.5663C12.9261 31.5292 12.9818 31.5292 13.0189 31.5477C19.4 34.46 26.2819 34.46 32.5887 31.5477C32.6258 31.5292 32.6815 31.5292 32.7186 31.5663C32.9226 31.7332 33.1267 31.8816 33.3307 32.0486C33.4049 32.1042 33.4049 32.2155 33.3122 32.2526C32.3476 32.8277 31.3274 33.2914 30.27 33.6995C30.1958 33.718 30.1773 33.8108 30.1958 33.8664C30.7894 34.998 31.4572 36.0738 32.1807 37.0941C32.2363 37.1126 32.292 37.1312 32.3476 37.1126C35.5381 36.1295 38.7472 34.6455 42.0862 32.197C42.1233 32.1784 42.1418 32.1413 42.1418 32.1042C42.958 23.7012 40.7877 16.4112 36.3914 9.93739C36.3729 9.91884 36.3543 9.90029 36.3172 9.90029ZM16.3764 27.6709C14.4657 27.6709 12.8705 25.9086 12.8705 23.7383C12.8705 21.568 14.4286 19.8058 16.3764 19.8058C18.3426 19.8058 19.9008 21.5866 19.8822 23.7383C19.8822 25.9086 18.3241 27.6709 16.3764 27.6709ZM29.3055 27.6709C27.3948 27.6709 25.7996 25.9086 25.7996 23.7383C25.7996 21.568 27.3577 19.8058 29.3055 19.8058C31.2717 19.8058 32.8299 21.5866 32.8113 23.7383C32.8113 25.9086 31.2717 27.6709 29.3055 27.6709Z" fill="#1E1E20"/>
</svg>
