<svg width="53" height="53" viewBox="0 0 53 53" fill="none" xmlns="http://www.w3.org/2000/svg">
<path d="M12.8559 40.7557C12.2005 40.3187 11.6368 39.7594 10.9769 38.9728C10.6344 38.5537 10.295 38.132 9.95874 37.7078C8.94713 36.4515 8.30914 35.8703 7.65148 35.6321C7.37477 35.5405 7.11917 35.3945 6.89975 35.2027C6.68033 35.0108 6.50151 34.7769 6.37384 34.5149C6.24616 34.2529 6.17221 33.968 6.15632 33.6769C6.14044 33.3859 6.18295 33.0946 6.28136 32.8202C6.37976 32.5459 6.53207 32.294 6.72931 32.0794C6.92655 31.8648 7.16473 31.6918 7.42984 31.5706C7.69495 31.4495 7.98161 31.3826 8.27296 31.3739C8.56431 31.3653 8.85445 31.415 9.1263 31.5201C10.7693 32.1101 11.8815 33.126 13.3803 34.9898C13.1749 34.7341 14.1232 35.9227 14.3264 36.1674C14.7415 36.6634 15.0474 36.9649 15.2877 37.1244C15.7334 37.4237 16.5725 37.5527 17.8004 37.4303C17.8528 36.5957 18.0057 35.7851 18.2417 35.0356C11.7569 33.4516 8.08628 29.2675 8.08628 21.061C8.08628 18.3561 8.89469 15.9155 10.3979 13.8705C9.9216 11.9172 9.9937 9.55529 11.0578 6.89626C11.1782 6.59507 11.3643 6.32449 11.6024 6.10416C11.8405 5.88383 12.1246 5.71928 12.4342 5.62246C12.6112 5.57002 12.7117 5.54817 12.8887 5.51977C14.6432 5.25103 17.1209 5.8912 20.3501 7.91661C22.2746 7.4667 24.2446 7.24088 26.221 7.24366C28.2136 7.24366 30.1953 7.4687 32.0853 7.91661C35.3124 5.87809 37.7966 5.23573 39.562 5.51977C39.7477 5.55036 39.9072 5.58969 40.0383 5.6312C40.3417 5.73122 40.6194 5.89652 40.8519 6.11547C41.0844 6.33441 41.2661 6.60168 41.3842 6.89844C42.4483 9.5531 42.5204 11.915 42.0441 13.8683C43.5538 15.9134 44.3557 18.3364 44.3557 21.061C44.3557 29.2719 40.6982 33.4407 34.2134 35.0291C34.4865 35.9358 34.6285 36.9474 34.6285 38.0443C34.6285 39.495 34.6241 40.8824 34.6132 42.4359C34.6132 42.851 34.6088 43.2968 34.6023 43.9785C35.0918 44.0863 35.5295 44.3591 35.8417 44.7513C36.154 45.1435 36.3219 45.6311 36.3172 46.1323C36.3126 46.6336 36.1358 47.118 35.8164 47.5044C35.497 47.8908 35.0544 48.1555 34.563 48.2543C32.0722 48.7525 30.2281 47.0919 30.2281 44.9245L30.2325 43.9479L30.2434 42.4075C30.2543 40.8628 30.2609 39.4841 30.2609 38.0443C30.2609 36.5214 29.8589 35.5272 29.3301 35.0706C27.8859 33.8252 28.6178 31.4568 30.5121 31.2448C36.9926 30.5151 39.9859 28.0046 39.9859 21.0632C39.9859 18.9766 39.3042 17.2505 37.9911 15.8085C37.7152 15.5053 37.5302 15.1306 37.4571 14.7272C37.3841 14.3239 37.426 13.9081 37.5781 13.5274C37.9408 12.6207 38.0938 11.4365 37.7857 10.001L37.7638 10.0054C36.691 10.3113 35.3386 10.9667 33.7043 12.081C33.4407 12.2599 33.1413 12.379 32.8269 12.4299C32.5125 12.4809 32.1908 12.4625 31.8843 12.376C30.0401 11.8646 28.1347 11.6073 26.221 11.6113C24.2764 11.6113 22.3493 11.8735 20.5577 12.376C20.2528 12.4618 19.9329 12.4802 19.6201 12.43C19.3073 12.3798 19.0092 12.2622 18.7464 12.0854C17.1012 10.9777 15.7444 10.3222 14.6607 10.0163C14.3482 11.443 14.5033 12.6251 14.8639 13.5274C15.0159 13.9081 15.0579 14.3239 14.9848 14.7272C14.9118 15.1306 14.7268 15.5053 14.4509 15.8085C13.1465 17.2418 12.4561 18.9963 12.4561 21.061C12.4561 27.9915 15.4516 30.5216 21.8992 31.2426C23.7892 31.4568 24.5255 33.8165 23.09 35.064C22.6683 35.4289 22.1505 36.6634 22.1505 38.0443V44.9245C22.1505 47.0788 20.3283 48.6957 17.8681 48.2652C17.3682 48.1788 16.914 47.9211 16.5834 47.5364C16.2527 47.1517 16.0662 46.664 16.0559 46.1568C16.0456 45.6496 16.212 45.1547 16.5267 44.7568C16.8414 44.3589 17.2848 44.083 17.7807 43.9763V41.8132C15.7924 41.9487 14.1516 41.6231 12.8559 40.7557Z" fill="black"/>
</svg>
