<svg width="57" height="57" viewBox="0 0 57 57" fill="none" xmlns="http://www.w3.org/2000/svg">
<path fill-rule="evenodd" clip-rule="evenodd" d="M28.5 28.5L40.375 16.625C40.375 10.0666 35.0583 4.75 28.5 4.75C21.9417 4.75 16.625 10.0666 16.625 16.625L28.5 28.5Z" stroke="black" stroke-width="4.75" stroke-linecap="round" stroke-linejoin="round"/>
<path fill-rule="evenodd" clip-rule="evenodd" d="M16.625 40.375L28.5 28.5L16.625 16.625C10.0666 16.625 4.75 21.9417 4.75 28.5C4.75 35.0583 10.0666 40.375 16.625 40.375Z" stroke="black" stroke-width="4.75" stroke-linecap="round" stroke-linejoin="round"/>
<path fill-rule="evenodd" clip-rule="evenodd" d="M40.375 40.375C46.9333 40.375 52.25 35.0583 52.25 28.5C52.25 21.9417 46.9333 16.625 40.375 16.625L28.5 28.5L40.375 40.375Z" stroke="black" stroke-width="4.75" stroke-linecap="round" stroke-linejoin="round"/>
<path fill-rule="evenodd" clip-rule="evenodd" d="M28.5 52.25C35.0583 52.25 40.375 46.9333 40.375 40.375L28.5 28.5L16.625 40.375C16.625 46.9333 21.9417 52.25 28.5 52.25Z" stroke="black" stroke-width="4.75" stroke-linecap="round" stroke-linejoin="round"/>
</svg>
