<svg width="47" height="47" viewBox="0 0 47 47" fill="none" xmlns="http://www.w3.org/2000/svg">
<g clip-path="url(#clip0_131_881)">
<path d="M0.423462 34.9328C0.423462 36.3054 0.968702 37.6217 1.93924 38.5922C2.90977 39.5628 4.2261 40.108 5.59864 40.108H41.8249C43.1974 40.108 44.5137 39.5628 45.4843 38.5922C46.4548 37.6217 47 36.3054 47 34.9328V28.4639H0.423462V34.9328Z" fill="#138808"/>
<path d="M47 18.1129V11.6439C47 10.2714 46.4548 8.95506 45.4843 7.98452C44.5137 7.01399 43.1974 6.46875 41.8249 6.46875H5.59864C4.2261 6.46875 2.90977 7.01399 1.93924 7.98452C0.968702 8.95506 0.423462 10.2714 0.423462 11.6439L0.423462 18.1129H47Z" fill="#FF9933"/>
<path d="M0.423462 17.6826H47V28.8959H0.423462V17.6826Z" fill="#F7F7F7"/>
<path d="M23.7118 28.4636C26.57 28.4636 28.887 26.1466 28.887 23.2885C28.887 20.4303 26.57 18.1133 23.7118 18.1133C20.8536 18.1133 18.5366 20.4303 18.5366 23.2885C18.5366 26.1466 20.8536 28.4636 23.7118 28.4636Z" fill="#000080"/>
<path d="M23.7116 27.654C26.1232 27.654 28.0782 25.699 28.0782 23.2875C28.0782 20.8759 26.1232 18.9209 23.7116 18.9209C21.3001 18.9209 19.3451 20.8759 19.3451 23.2875C19.3451 25.699 21.3001 27.654 23.7116 27.654Z" fill="#F7F7F7"/>
<path d="M23.8411 21.6713L23.7117 22.5123L23.5823 21.6713L23.7117 19.1484L23.8411 21.6713ZM22.6404 19.2895L23.1683 21.7593L23.5111 22.5382L23.418 21.6933L22.6404 19.2895ZM21.6416 19.7035L22.7905 21.9521L23.3235 22.6158L23.0156 21.8227L21.6416 19.7035ZM20.7838 20.3607L22.4761 22.2367L23.1631 22.74L22.6598 22.053L20.7838 20.3607ZM20.1266 21.2185L22.2458 22.5925L23.0389 22.9004L22.3752 22.3674L20.1266 21.2185ZM19.7126 22.2173L22.1164 22.9949L22.9613 23.088L22.1824 22.7452L19.7126 22.2173ZM19.5715 23.2886L22.0944 23.418L22.9354 23.2886L22.0944 23.1592L19.5715 23.2886ZM19.7126 24.3598L22.1824 23.832L22.9613 23.4891L22.1164 23.5823L19.7126 24.3598ZM20.1266 25.3586L22.3752 24.2098L23.0389 23.6767L22.2458 23.9846L20.1266 25.3586ZM20.7838 26.2164L22.6598 24.5242L23.1631 23.8371L22.4761 24.3404L20.7838 26.2164ZM21.6416 26.8737L23.0156 24.7544L23.3235 23.9614L22.7905 24.6251L21.6416 26.8737ZM22.6404 27.2877L23.418 24.8838L23.5111 24.039L23.1683 24.8178L22.6404 27.2877ZM23.7117 27.4287L23.8411 24.9058L23.7117 24.0649L23.5823 24.9058L23.7117 27.4287ZM24.7829 27.2877L24.2551 24.8178L23.9122 24.039L24.0054 24.8838L24.7829 27.2877ZM25.7817 26.8737L24.6329 24.6251L24.0998 23.9614L24.4077 24.7544L25.7817 26.8737ZM26.6395 26.2164L24.9472 24.3404L24.2602 23.8371L24.7635 24.5242L26.6395 26.2164ZM27.2968 25.3586L25.1775 23.9846L24.3844 23.6767L25.0482 24.2098L27.2968 25.3586ZM27.7108 24.3598L25.3069 23.5823L24.4621 23.4891L25.2409 23.832L27.7108 24.3598ZM27.8518 23.2886L25.3289 23.1592L24.488 23.2886L25.3289 23.418L27.8518 23.2886ZM27.7108 22.2173L25.2409 22.7452L24.4621 23.088L25.3069 22.9949L27.7108 22.2173ZM27.2968 21.2185L25.0482 22.3674L24.3844 22.9004L25.1775 22.5925L27.2968 21.2185ZM26.6395 20.3607L24.7635 22.053L24.2602 22.74L24.9472 22.2367L26.6395 20.3607ZM25.7817 19.7035L24.4077 21.8227L24.0998 22.6158L24.6329 21.9521L25.7817 19.7035ZM24.7829 19.2895L24.0054 21.6933L23.9122 22.5382L24.2551 21.7593L24.7829 19.2895Z" fill="#6666B3"/>
<path d="M23.1423 19.2245C23.2852 19.2245 23.4011 19.1087 23.4011 18.9658C23.4011 18.8229 23.2852 18.707 23.1423 18.707C22.9994 18.707 22.8835 18.8229 22.8835 18.9658C22.8835 19.1087 22.9994 19.2245 23.1423 19.2245Z" fill="#000080"/>
<path d="M22.0426 19.5204C22.1855 19.5204 22.3013 19.4046 22.3013 19.2617C22.3013 19.1188 22.1855 19.0029 22.0426 19.0029C21.8997 19.0029 21.7838 19.1188 21.7838 19.2617C21.7838 19.4046 21.8997 19.5204 22.0426 19.5204Z" fill="#000080"/>
<path d="M21.0567 20.0878C21.1996 20.0878 21.3155 19.972 21.3155 19.8291C21.3155 19.6862 21.1996 19.5703 21.0567 19.5703C20.9138 19.5703 20.798 19.6862 20.798 19.8291C20.798 19.972 20.9138 20.0878 21.0567 20.0878Z" fill="#000080"/>
<path d="M20.252 20.8935C20.395 20.8935 20.5108 20.7776 20.5108 20.6347C20.5108 20.4918 20.395 20.376 20.252 20.376C20.1091 20.376 19.9933 20.4918 19.9933 20.6347C19.9933 20.7776 20.1091 20.8935 20.252 20.8935Z" fill="#000080"/>
<path d="M19.6842 21.8788C19.8271 21.8788 19.9429 21.763 19.9429 21.6201C19.9429 21.4772 19.8271 21.3613 19.6842 21.3613C19.5413 21.3613 19.4254 21.4772 19.4254 21.6201C19.4254 21.763 19.5413 21.8788 19.6842 21.8788Z" fill="#000080"/>
<path d="M19.3891 22.9785C19.532 22.9785 19.6479 22.8626 19.6479 22.7197C19.6479 22.5768 19.532 22.4609 19.3891 22.4609C19.2462 22.4609 19.1304 22.5768 19.1304 22.7197C19.1304 22.8626 19.2462 22.9785 19.3891 22.9785Z" fill="#000080"/>
<path d="M19.3891 24.1171C19.532 24.1171 19.6479 24.0013 19.6479 23.8584C19.6479 23.7155 19.532 23.5996 19.3891 23.5996C19.2462 23.5996 19.1304 23.7155 19.1304 23.8584C19.1304 24.0013 19.2462 24.1171 19.3891 24.1171Z" fill="#000080"/>
<path d="M19.6842 25.2158C19.8271 25.2158 19.9429 25.0999 19.9429 24.957C19.9429 24.8141 19.8271 24.6982 19.6842 24.6982C19.5413 24.6982 19.4254 24.8141 19.4254 24.957C19.4254 25.0999 19.5413 25.2158 19.6842 25.2158Z" fill="#000080"/>
<path d="M20.252 26.2031C20.395 26.2031 20.5108 26.0872 20.5108 25.9443C20.5108 25.8014 20.395 25.6855 20.252 25.6855C20.1091 25.6855 19.9933 25.8014 19.9933 25.9443C19.9933 26.0872 20.1091 26.2031 20.252 26.2031Z" fill="#000080"/>
<path d="M21.0567 27.0078C21.1996 27.0078 21.3155 26.8919 21.3155 26.749C21.3155 26.6061 21.1996 26.4902 21.0567 26.4902C20.9138 26.4902 20.798 26.6061 20.798 26.749C20.798 26.8919 20.9138 27.0078 21.0567 27.0078Z" fill="#000080"/>
<path d="M22.0426 27.5751C22.1855 27.5751 22.3013 27.4593 22.3013 27.3164C22.3013 27.1735 22.1855 27.0576 22.0426 27.0576C21.8997 27.0576 21.7838 27.1735 21.7838 27.3164C21.7838 27.4593 21.8997 27.5751 22.0426 27.5751Z" fill="#000080"/>
<path d="M23.1423 27.8701C23.2852 27.8701 23.4011 27.7542 23.4011 27.6113C23.4011 27.4684 23.2852 27.3525 23.1423 27.3525C22.9994 27.3525 22.8835 27.4684 22.8835 27.6113C22.8835 27.7542 22.9994 27.8701 23.1423 27.8701Z" fill="#000080"/>
<path d="M24.281 27.8701C24.4239 27.8701 24.5397 27.7542 24.5397 27.6113C24.5397 27.4684 24.4239 27.3525 24.281 27.3525C24.1381 27.3525 24.0222 27.4684 24.0222 27.6113C24.0222 27.7542 24.1381 27.8701 24.281 27.8701Z" fill="#000080"/>
<path d="M25.3806 27.5751C25.5235 27.5751 25.6393 27.4593 25.6393 27.3164C25.6393 27.1735 25.5235 27.0576 25.3806 27.0576C25.2377 27.0576 25.1218 27.1735 25.1218 27.3164C25.1218 27.4593 25.2377 27.5751 25.3806 27.5751Z" fill="#000080"/>
<path d="M26.3667 27.0078C26.5096 27.0078 26.6254 26.8919 26.6254 26.749C26.6254 26.6061 26.5096 26.4902 26.3667 26.4902C26.2238 26.4902 26.1079 26.6061 26.1079 26.749C26.1079 26.8919 26.2238 27.0078 26.3667 27.0078Z" fill="#000080"/>
<path d="M27.1714 26.2031C27.3143 26.2031 27.4301 26.0872 27.4301 25.9443C27.4301 25.8014 27.3143 25.6855 27.1714 25.6855C27.0284 25.6855 26.9126 25.8014 26.9126 25.9443C26.9126 26.0872 27.0284 26.2031 27.1714 26.2031Z" fill="#000080"/>
<path d="M27.7392 25.2158C27.8821 25.2158 27.998 25.0999 27.998 24.957C27.998 24.8141 27.8821 24.6982 27.7392 24.6982C27.5963 24.6982 27.4805 24.8141 27.4805 24.957C27.4805 25.0999 27.5963 25.2158 27.7392 25.2158Z" fill="#000080"/>
<path d="M28.0343 24.1171C28.1772 24.1171 28.293 24.0013 28.293 23.8584C28.293 23.7155 28.1772 23.5996 28.0343 23.5996C27.8914 23.5996 27.7755 23.7155 27.7755 23.8584C27.7755 24.0013 27.8914 24.1171 28.0343 24.1171Z" fill="#000080"/>
<path d="M28.0343 22.9785C28.1772 22.9785 28.293 22.8626 28.293 22.7197C28.293 22.5768 28.1772 22.4609 28.0343 22.4609C27.8914 22.4609 27.7755 22.5768 27.7755 22.7197C27.7755 22.8626 27.8914 22.9785 28.0343 22.9785Z" fill="#000080"/>
<path d="M27.7392 21.8788C27.8821 21.8788 27.998 21.763 27.998 21.6201C27.998 21.4772 27.8821 21.3613 27.7392 21.3613C27.5963 21.3613 27.4805 21.4772 27.4805 21.6201C27.4805 21.763 27.5963 21.8788 27.7392 21.8788Z" fill="#000080"/>
<path d="M27.1714 20.8935C27.3143 20.8935 27.4301 20.7776 27.4301 20.6347C27.4301 20.4918 27.3143 20.376 27.1714 20.376C27.0284 20.376 26.9126 20.4918 26.9126 20.6347C26.9126 20.7776 27.0284 20.8935 27.1714 20.8935Z" fill="#000080"/>
<path d="M26.3667 20.0878C26.5096 20.0878 26.6254 19.972 26.6254 19.8291C26.6254 19.6862 26.5096 19.5703 26.3667 19.5703C26.2238 19.5703 26.1079 19.6862 26.1079 19.8291C26.1079 19.972 26.2238 20.0878 26.3667 20.0878Z" fill="#000080"/>
<path d="M25.3806 19.5204C25.5235 19.5204 25.6393 19.4046 25.6393 19.2617C25.6393 19.1188 25.5235 19.0029 25.3806 19.0029C25.2377 19.0029 25.1218 19.1188 25.1218 19.2617C25.1218 19.4046 25.2377 19.5204 25.3806 19.5204Z" fill="#000080"/>
<path d="M24.281 19.2245C24.4239 19.2245 24.5397 19.1087 24.5397 18.9658C24.5397 18.8229 24.4239 18.707 24.281 18.707C24.1381 18.707 24.0222 18.8229 24.0222 18.9658C24.0222 19.1087 24.1381 19.2245 24.281 19.2245Z" fill="#000080"/>
<path d="M23.7117 24.4529C24.3547 24.4529 24.8761 23.9315 24.8761 23.2884C24.8761 22.6453 24.3547 22.124 23.7117 22.124C23.0686 22.124 22.5472 22.6453 22.5472 23.2884C22.5472 23.9315 23.0686 24.4529 23.7117 24.4529Z" fill="#000080"/>
</g>
<defs>
<clipPath id="clip0_131_881">
<rect width="46.5766" height="46.5766" fill="white" transform="translate(0.42334)"/>
</clipPath>
</defs>
</svg>
