<svg width="48" height="49" viewBox="0 0 48 49" fill="none" xmlns="http://www.w3.org/2000/svg">
<path d="M15.6455 4.39648H32.422C38.813 4.39648 44.0057 9.5892 44.0057 15.9802V32.7567C44.0057 35.8289 42.7853 38.7753 40.6129 40.9476C38.4405 43.12 35.4942 44.3404 32.422 44.3404H15.6455C9.25448 44.3404 4.06177 39.1477 4.06177 32.7567V15.9802C4.06177 12.908 5.28219 9.96166 7.45457 7.78929C9.62694 5.61691 12.5733 4.39648 15.6455 4.39648ZM15.2461 8.39088C13.3392 8.39088 11.5104 9.14839 10.162 10.4968C8.81367 11.8451 8.05616 13.6739 8.05616 15.5808V33.1561C8.05616 37.1306 11.2717 40.346 15.2461 40.346H32.8214C34.7283 40.346 36.5571 39.5885 37.9055 38.2402C39.2538 36.8918 40.0113 35.063 40.0113 33.1561V15.5808C40.0113 11.6064 36.7958 8.39088 32.8214 8.39088H15.2461ZM34.519 11.3867C35.1811 11.3867 35.8161 11.6497 36.2843 12.1179C36.7525 12.5861 37.0155 13.2211 37.0155 13.8832C37.0155 14.5453 36.7525 15.1803 36.2843 15.6485C35.8161 16.1166 35.1811 16.3797 34.519 16.3797C33.8569 16.3797 33.2219 16.1166 32.7537 15.6485C32.2856 15.1803 32.0225 14.5453 32.0225 13.8832C32.0225 13.2211 32.2856 12.5861 32.7537 12.1179C33.2219 11.6497 33.8569 11.3867 34.519 11.3867ZM24.0337 14.3825C26.6822 14.3825 29.2222 15.4346 31.0949 17.3073C32.9676 19.18 34.0197 21.72 34.0197 24.3685C34.0197 27.0169 32.9676 29.5569 31.0949 31.4296C29.2222 33.3024 26.6822 34.3545 24.0337 34.3545C21.3853 34.3545 18.8453 33.3024 16.9726 31.4296C15.0998 29.5569 14.0478 27.0169 14.0478 24.3685C14.0478 21.72 15.0998 19.18 16.9726 17.3073C18.8453 15.4346 21.3853 14.3825 24.0337 14.3825ZM24.0337 18.3769C22.4447 18.3769 20.9207 19.0081 19.797 20.1318C18.6734 21.2554 18.0422 22.7794 18.0422 24.3685C18.0422 25.9575 18.6734 27.4815 19.797 28.6052C20.9207 29.7288 22.4447 30.3601 24.0337 30.3601C25.6228 30.3601 27.1468 29.7288 28.2704 28.6052C29.3941 27.4815 30.0253 25.9575 30.0253 24.3685C30.0253 22.7794 29.3941 21.2554 28.2704 20.1318C27.1468 19.0081 25.6228 18.3769 24.0337 18.3769Z" fill="black"/>
</svg>
