<svg width="53" height="53" viewBox="0 0 53 53" fill="none" xmlns="http://www.w3.org/2000/svg">
<path d="M35 17.4795C38.4769 17.4795 41.8113 18.8607 44.2698 21.3192C46.7283 23.7776 48.1095 27.1121 48.1095 30.5889V45.8832H39.3698V30.5889C39.3698 29.43 38.9095 28.3185 38.09 27.499C37.2705 26.6795 36.159 26.2191 35 26.2191C33.8411 26.2191 32.7296 26.6795 31.9101 27.499C31.0906 28.3185 30.6302 29.43 30.6302 30.5889V45.8832H21.8906V30.5889C21.8906 27.1121 23.2718 23.7776 25.7303 21.3192C28.1888 18.8607 31.5232 17.4795 35 17.4795ZM4.41138 19.6644H13.151V45.8832H4.41138V19.6644Z" stroke="black" stroke-width="4.36981" stroke-linecap="round" stroke-linejoin="round"/>
<path d="M8.78119 13.1097C11.1946 13.1097 13.151 11.1533 13.151 8.73993C13.151 6.32655 11.1946 4.37012 8.78119 4.37012C6.36781 4.37012 4.41138 6.32655 4.41138 8.73993C4.41138 11.1533 6.36781 13.1097 8.78119 13.1097Z" stroke="black" stroke-width="4.36981" stroke-linecap="round" stroke-linejoin="round"/>
</svg>
