<svg width="47" height="47" viewBox="0 0 47 47" fill="none" xmlns="http://www.w3.org/2000/svg">
<g clip-path="url(#clip0_131_876)">
<path d="M13.5428 5.96426C15.2604 5.6716 17.0219 5.76814 18.6972 6.24676C20.3726 6.72539 21.9192 7.5739 23.223 8.72974L23.2948 8.79379L23.3608 8.73556C24.6051 7.64353 26.0681 6.82941 27.652 6.34751C29.2359 5.86561 30.9043 5.72702 32.5461 5.94097L33.0235 6.01083C35.0928 6.36813 37.0271 7.27841 38.6213 8.64526C40.2156 10.0121 41.4105 11.7847 42.0796 13.7752C42.7487 15.7658 42.867 17.9002 42.422 19.9525C41.9771 22.0048 40.9854 23.8986 39.552 25.4333L39.2026 25.7923L39.1095 25.8719L24.6513 40.1922C24.3177 40.5224 23.8756 40.7205 23.4071 40.7498C22.9386 40.7791 22.4753 40.6375 22.1032 40.3514L21.9208 40.1922L7.37917 25.7884C5.83869 24.2895 4.74313 22.3935 4.21383 20.3104C3.68452 18.2272 3.74213 16.0382 4.38026 13.9857C5.0184 11.9333 6.21216 10.0975 7.82934 8.68175C9.44652 7.26597 11.424 6.32541 13.5428 5.96426Z" fill="#FF0000"/>
</g>
<defs>
<clipPath id="clip0_131_876">
<rect width="46.5766" height="46.5766" fill="white" transform="translate(-0.0012207)"/>
</clipPath>
</defs>
</svg>
