<svg width="57" height="57" viewBox="0 0 57 57" fill="none" xmlns="http://www.w3.org/2000/svg">
<path d="M45.125 23.7495C44.4951 23.7495 43.891 23.9997 43.4456 24.4451C43.0002 24.8905 42.75 25.4946 42.75 26.1245V34.152L39.235 30.637C37.9939 29.4057 36.3164 28.7147 34.5681 28.7147C32.8198 28.7147 31.1424 29.4057 29.9013 30.637L28.2388 32.3233L22.3487 26.4095C21.1076 25.1782 19.4302 24.4872 17.6819 24.4872C15.9336 24.4872 14.2561 25.1782 13.015 26.4095L9.5 29.9483V16.6245C9.5 15.9946 9.75022 15.3905 10.1956 14.9451C10.641 14.4997 11.2451 14.2495 11.875 14.2495H30.875C31.5049 14.2495 32.109 13.9993 32.5544 13.5539C32.9998 13.1085 33.25 12.5044 33.25 11.8745C33.25 11.2446 32.9998 10.6405 32.5544 10.1951C32.109 9.74973 31.5049 9.49951 30.875 9.49951H11.875C9.98533 9.49951 8.17306 10.2502 6.83686 11.5864C5.50067 12.9226 4.75 14.7348 4.75 16.6245V45.647C4.75626 47.3962 5.45389 49.0719 6.69074 50.3088C7.9276 51.5456 9.60333 52.2433 11.3525 52.2495H40.8975C41.5411 52.2444 42.1807 52.1484 42.7975 51.9645C44.1689 51.5798 45.3762 50.7559 46.2343 49.619C47.0923 48.4821 47.5536 47.0951 47.5475 45.6708V26.1245C47.5476 25.8086 47.4846 25.4958 47.3623 25.2045C47.24 24.9132 47.0608 24.6493 46.8352 24.4281C46.6096 24.2069 46.3421 24.033 46.0485 23.9165C45.7548 23.8 45.4409 23.7432 45.125 23.7495ZM11.875 47.4995C11.2451 47.4995 10.641 47.2493 10.1956 46.8039C9.75022 46.3585 9.5 45.7544 9.5 45.1245V36.6458L16.3637 29.782C16.7109 29.4368 17.1805 29.2431 17.67 29.2431C18.1595 29.2431 18.6291 29.4368 18.9762 29.782L36.7175 47.4995H11.875ZM42.75 45.1245C42.7347 45.5844 42.5862 46.03 42.3225 46.407L31.5875 35.6245L33.2738 33.962C33.444 33.7882 33.6473 33.6502 33.8716 33.5559C34.0959 33.4617 34.3367 33.4131 34.58 33.4131C34.8233 33.4131 35.0641 33.4617 35.2884 33.5559C35.5127 33.6502 35.716 33.7882 35.8862 33.962L42.75 40.8733V45.1245ZM49.875 9.49951H47.5V7.12451C47.5 6.49462 47.2498 5.89053 46.8044 5.44513C46.359 4.99973 45.7549 4.74951 45.125 4.74951C44.4951 4.74951 43.891 4.99973 43.4456 5.44513C43.0002 5.89053 42.75 6.49462 42.75 7.12451V9.49951H40.375C39.7451 9.49951 39.141 9.74973 38.6956 10.1951C38.2502 10.6405 38 11.2446 38 11.8745C38 12.5044 38.2502 13.1085 38.6956 13.5539C39.141 13.9993 39.7451 14.2495 40.375 14.2495H42.75V16.6245C42.75 17.2544 43.0002 17.8585 43.4456 18.3039C43.891 18.7493 44.4951 18.9995 45.125 18.9995C45.7549 18.9995 46.359 18.7493 46.8044 18.3039C47.2498 17.8585 47.5 17.2544 47.5 16.6245V14.2495H49.875C50.5049 14.2495 51.109 13.9993 51.5544 13.5539C51.9998 13.1085 52.25 12.5044 52.25 11.8745C52.25 11.2446 51.9998 10.6405 51.5544 10.1951C51.109 9.74973 50.5049 9.49951 49.875 9.49951Z" fill="black"/>
</svg>
