<svg width="57" height="57" viewBox="0 0 57 57" fill="none" xmlns="http://www.w3.org/2000/svg">
<path d="M19 7.125C14.5908 7.125 10.3621 8.87656 7.24435 11.9944C4.12656 15.1121 2.375 19.3408 2.375 23.75C2.375 28.1592 4.12656 32.3879 7.24435 35.5057C10.3621 38.6234 14.5908 40.375 19 40.375H21.5412C21.3158 38.7997 21.3158 37.2003 21.5412 35.625H19C15.8506 35.625 12.8301 34.3739 10.6031 32.1469C8.37611 29.9199 7.125 26.8994 7.125 23.75C7.125 20.6006 8.37611 17.5801 10.6031 15.3531C12.8301 13.1261 15.8506 11.875 19 11.875H38C39.7611 11.8746 41.5002 12.266 43.0914 13.0207C44.6826 13.7754 46.086 14.8746 47.2 16.2387C48.3139 17.6027 49.1106 19.1974 49.5322 20.9073C49.9537 22.6172 49.9897 24.3995 49.6375 26.125C51.0368 27.497 52.1832 29.105 53.0242 30.875C54.2264 28.3407 54.7677 25.5435 54.5979 22.7437C54.4282 19.9439 53.5527 17.2326 52.0532 14.8621C50.5537 12.4917 48.4787 10.5392 46.0216 9.18635C43.5644 7.83354 40.8049 7.12442 38 7.125H19ZM38 30.875C36.1103 30.875 34.2981 31.6257 32.9619 32.9619C31.6257 34.2981 30.875 36.1103 30.875 38C30.875 39.8897 31.6257 41.7019 32.9619 43.0381C34.2981 44.3743 36.1103 45.125 38 45.125C39.8897 45.125 41.7019 44.3743 43.0381 43.0381C44.3743 41.7019 45.125 39.8897 45.125 38C45.125 36.1103 44.3743 34.2981 43.0381 32.9619C41.7019 31.6257 39.8897 30.875 38 30.875ZM26.125 38C26.1254 36.1485 26.5588 34.3227 27.3906 32.6685C28.2223 31.0143 29.4293 29.5775 30.9152 28.4729C32.4011 27.3682 34.1247 26.6263 35.9484 26.3064C37.772 25.9865 39.6452 26.0975 41.4184 26.6305C43.1915 27.1635 44.8155 28.1037 46.1606 29.3761C47.5056 30.6485 48.5345 32.2178 49.1651 33.9586C49.7957 35.6994 50.0104 37.5636 49.7923 39.4022C49.5741 41.2408 48.929 43.003 47.9085 44.5479L53.9291 50.5709L50.5709 53.9291L44.5479 47.9085C42.758 49.0916 40.681 49.7676 38.5377 49.8647C36.3943 49.9619 34.2647 49.4765 32.3751 48.4602C30.4855 47.4439 28.9066 45.9347 27.8061 44.0929C26.7056 42.2511 26.1247 40.1455 26.125 38Z" fill="black"/>
</svg>
