<svg width="57" height="57" viewBox="0 0 57 57" fill="none" xmlns="http://www.w3.org/2000/svg">
<g clip-path="url(#clip0_131_863)">
<path d="M31.1951 0.233649C33.8894 0.540867 36.4919 1.27537 38.2929 3.35527C40.0762 5.40693 40.6094 8.22134 40.6094 11.4771C40.6094 13.1262 40.3022 15.4286 40.055 17.2578L40.002 17.6568H45.0234C47.1528 17.6568 49.1691 17.957 50.9136 18.8327C52.7074 19.7297 54.1305 21.2305 54.9286 23.0702C56.5283 26.5944 56.4753 31.7112 55.5925 38.3111L55.4512 39.3917C55.0804 42.1814 54.7626 44.5932 54.3459 46.5707C53.8833 48.7954 53.2336 50.84 51.9871 52.475C49.3316 55.9603 44.8681 56.5006 38.8438 56.5006C32.318 56.5006 27.4237 55.3247 23.3486 54.1947C22.766 54.0358 22.208 53.8769 21.6713 53.725C19.3477 53.0682 17.4338 52.5244 15.5799 52.2596C15.172 53.4939 14.3853 54.5683 13.3316 55.3297C12.2779 56.0911 11.0109 56.5008 9.71094 56.5006H6.17969C4.54073 56.5006 2.9689 55.8495 1.80999 54.6906C0.651072 53.5317 0 51.9599 0 50.3209L0 23.8365C0 20.4253 2.7685 17.6568 6.17969 17.6568H9.71094C10.7937 17.6567 11.8576 17.9411 12.7959 18.4815C13.7342 19.022 14.514 19.7994 15.0573 20.7361C15.9683 20.3653 17.1407 19.7897 18.2989 18.9422C20.6684 17.2119 22.9531 14.4046 22.9531 9.71152V7.9459C22.9531 3.70134 26.4632 -0.306633 31.1951 0.233649ZM15.8906 46.9662C18.3802 47.277 20.7991 47.9691 23.2074 48.6541L24.7647 49.0956C28.6349 50.1726 33.0066 51.2072 38.8438 51.2072C45.1788 51.2072 46.895 50.4198 47.7707 49.2686C48.2898 48.5871 48.7454 47.4853 49.1621 45.4901C49.5328 43.7175 49.8259 41.521 50.2038 38.6748L50.345 37.6155C51.2278 30.9696 51.0124 27.2583 50.1049 25.2667C49.8089 24.5301 49.2538 23.9273 48.5441 23.5717C47.8096 23.2044 46.7078 22.9572 45.0234 22.9572H38.8438C36.4213 22.9572 34.2708 20.9197 34.5851 18.2395C34.6663 17.5615 34.7616 16.8623 34.8534 16.1702C35.083 14.4469 35.3125 12.7449 35.3125 11.4807C35.3125 8.6239 34.804 7.41974 34.2955 6.83355C33.8117 6.27562 32.8759 5.76006 30.5947 5.49874C29.5107 5.37162 28.25 6.33212 28.25 7.9459V9.71152C28.25 16.4986 24.7964 20.7573 21.4241 23.2186C19.7353 24.4471 17.8695 25.4116 15.8906 26.0789V46.9662ZM9.71094 22.9537H6.17969C5.94555 22.9537 5.721 23.0467 5.55545 23.2123C5.38989 23.3778 5.29688 23.6024 5.29688 23.8365V50.3209C5.29688 50.8082 5.69238 51.2037 6.17969 51.2037H9.71094C9.94507 51.2037 10.1696 51.1107 10.3352 50.9451C10.5007 50.7796 10.5938 50.555 10.5938 50.3209V23.8365C10.5938 23.6024 10.5007 23.3778 10.3352 23.2123C10.1696 23.0467 9.94507 22.9537 9.71094 22.9537Z" fill="black"/>
</g>
<defs>
<clipPath id="clip0_131_863">
<rect width="56.5" height="56.5" fill="white"/>
</clipPath>
</defs>
</svg>
