<svg width="57" height="57" viewBox="0 0 57 57" fill="none" xmlns="http://www.w3.org/2000/svg">
<g clip-path="url(#clip0_131_865)">
<path d="M25.5118 56.4499C22.8175 56.1427 20.2185 55.4082 18.4105 53.3283C16.6307 51.2766 16.0975 48.4622 16.0975 45.21C16.0975 43.5573 16.4047 41.255 16.6519 39.4258L16.7049 39.0303H11.6835C9.55411 39.0303 7.53776 38.7266 5.7898 37.8508C3.99595 36.954 2.57559 35.4536 1.7783 33.6133C0.175108 30.0891 0.231608 24.9724 1.11442 18.3725L1.25567 17.2919C1.62998 14.5057 1.9478 12.0904 2.35742 10.1129C2.82355 7.88818 3.4733 5.84359 4.71983 4.20862C7.37533 0.723274 11.8388 0.186524 17.8631 0.186524C24.3889 0.186524 29.2832 1.3589 33.3583 2.4889L35.0321 2.95856C37.3556 3.6189 39.2731 4.16271 41.127 4.42402C41.5355 3.1903 42.3224 2.11674 43.3761 1.35599C44.4297 0.595239 45.6964 0.186022 46.996 0.186524H50.5272C53.9384 0.186524 56.7069 2.95502 56.7069 6.36621V32.8506C56.7069 34.4895 56.0558 36.0614 54.8969 37.2203C53.738 38.3792 52.1662 39.0303 50.5272 39.0303H46.996C45.9132 39.0304 44.8493 38.746 43.911 38.2056C42.9727 37.6652 42.1929 36.8877 41.6496 35.951C40.735 36.3218 39.5662 36.8974 38.4044 37.7449C36.035 39.4787 33.7538 42.2826 33.7538 46.9756V48.7412C33.7538 52.9822 30.2437 56.9902 25.5118 56.4499ZM40.8163 9.72443C38.3232 9.41015 35.9078 8.72155 33.4995 8.03296L31.9422 7.59156C28.072 6.51805 23.6968 5.4834 17.8631 5.4834C11.5281 5.4834 9.81189 6.26734 8.93261 7.41852C8.41351 8.10006 7.96151 9.20181 7.54483 11.197C7.17405 12.9696 6.88095 15.1661 6.50311 18.0123L6.36186 19.0716C5.47904 25.7175 5.69092 29.4288 6.59845 31.4204C6.89587 32.1572 7.45218 32.76 8.1628 33.1154C8.8973 33.4827 9.99905 33.7334 11.6835 33.7334H17.8631C20.282 33.7334 22.4361 35.7709 22.1183 38.4476C22.0406 39.1256 21.9453 39.8248 21.8535 40.5169C21.6204 42.2402 21.3944 43.9422 21.3944 45.21C21.3944 48.0632 21.9029 49.2709 22.4114 49.8571C22.8952 50.4115 23.8274 50.9271 26.1121 51.1884C27.1962 51.312 28.4569 50.3515 28.4569 48.7412V46.9756C28.4569 40.1885 31.9105 35.9334 35.2793 33.4686C36.9707 32.2431 38.8374 31.28 40.8163 30.6118V9.72443ZM46.996 33.7299H50.5272C50.7613 33.7299 50.9859 33.6369 51.1514 33.4713C51.317 33.3057 51.41 33.0812 51.41 32.8471V6.36268C51.41 6.12854 51.317 5.904 51.1514 5.73844C50.9859 5.57288 50.7613 5.47987 50.5272 5.47987H46.996C46.7618 5.47987 46.5373 5.57288 46.3717 5.73844C46.2062 5.904 46.1131 6.12854 46.1131 6.36268V32.8471C46.1131 33.3344 46.5086 33.7299 46.996 33.7299Z" fill="black"/>
</g>
<defs>
<clipPath id="clip0_131_865">
<rect width="56.5" height="56.5" fill="white" transform="translate(0.5)"/>
</clipPath>
</defs>
</svg>
