<svg width="57" height="57" viewBox="0 0 57 57" fill="none" xmlns="http://www.w3.org/2000/svg">
<path d="M35.625 9.50049C40.6641 9.50049 45.4968 11.5023 49.06 15.0655C52.6232 18.6287 54.625 23.4614 54.625 28.5005C54.625 33.5396 52.6232 38.3723 49.06 41.9355C45.4968 45.4987 40.6641 47.5005 35.625 47.5005C30.5859 47.5005 25.7532 45.4987 22.19 41.9355C18.6268 38.3723 16.625 33.5396 16.625 28.5005C16.625 23.4614 18.6268 18.6287 22.19 15.0655C25.7532 11.5023 30.5859 9.50049 35.625 9.50049ZM35.625 14.2505C31.8457 14.2505 28.2211 15.7518 25.5487 18.4242C22.8763 21.0966 21.375 24.7212 21.375 28.5005C21.375 32.2798 22.8763 35.9044 25.5487 38.5768C28.2211 41.2492 31.8457 42.7505 35.625 42.7505C39.4043 42.7505 43.0289 41.2492 45.7013 38.5768C48.3737 35.9044 49.875 32.2798 49.875 28.5005C49.875 24.7212 48.3737 21.0966 45.7013 18.4242C43.0289 15.7518 39.4043 14.2505 35.625 14.2505ZM33.25 19.0005H36.8125V27.978L42.3462 33.5117L39.8287 36.0292L33.25 29.4505V19.0005ZM4.75 42.7505C4.12011 42.7505 3.51602 42.5003 3.07062 42.0549C2.62522 41.6095 2.375 41.0054 2.375 40.3755C2.375 39.7456 2.62522 39.1415 3.07062 38.6961C3.51602 38.2507 4.12011 38.0005 4.75 38.0005H13.8462C14.5825 39.6867 15.5325 41.278 16.625 42.7505H4.75ZM7.125 30.8755C6.49511 30.8755 5.89102 30.6253 5.44562 30.1799C5.00022 29.7345 4.75 29.1304 4.75 28.5005C4.75 27.8706 5.00022 27.2665 5.44562 26.8211C5.89102 26.3757 6.49511 26.1255 7.125 26.1255H11.9937L11.875 28.5005L11.9937 30.8755H7.125ZM9.5 19.0005C8.87011 19.0005 8.26602 18.7503 7.82062 18.3049C7.37522 17.8595 7.125 17.2554 7.125 16.6255C7.125 15.9956 7.37522 15.3915 7.82062 14.9461C8.26602 14.5007 8.87011 14.2505 9.5 14.2505H16.625C15.5325 15.723 14.5825 17.3142 13.8462 19.0005H9.5Z" fill="black"/>
</svg>
