<svg width="45" height="45" viewBox="0 0 45 45" fill="none" xmlns="http://www.w3.org/2000/svg">
<path d="M41.7478 11.143C40.3194 11.7923 38.7798 12.2189 37.1845 12.423C38.8169 11.4398 40.0783 9.88166 40.6719 8.00814C39.1323 8.93563 37.4257 9.58486 35.6264 9.95586C34.1609 8.36059 32.1019 7.43311 29.7647 7.43311C25.4055 7.43311 21.844 10.9946 21.844 15.3909C21.844 16.0216 21.9182 16.6337 22.048 17.2088C15.4444 16.8749 9.56412 13.7029 5.65014 8.89853C4.96381 10.0672 4.57426 11.4398 4.57426 12.8867C4.57426 15.6506 5.96549 18.0992 8.11725 19.4904C6.80022 19.4904 5.57594 19.1194 4.50007 18.5629V18.6185C4.50007 22.4769 7.24541 25.7045 10.8811 26.4279C9.71386 26.7474 8.48842 26.7918 7.30106 26.5578C7.80488 28.1391 8.79159 29.5228 10.1225 30.5143C11.4534 31.5058 13.0616 32.0553 14.7209 32.0856C11.9081 34.3124 8.42145 35.516 4.83396 35.4987C4.20327 35.4987 3.57258 35.4616 2.94189 35.3874C6.46633 37.6505 10.6585 38.9675 15.1476 38.9675C29.7647 38.9675 37.7967 26.836 37.7967 16.3184C37.7967 15.9659 37.7967 15.632 37.7781 15.2796C39.3363 14.1666 40.6719 12.7569 41.7478 11.143Z" fill="#1E1E20"/>
</svg>
