<svg width="554" height="158" viewBox="0 0 554 158" fill="none" xmlns="http://www.w3.org/2000/svg">
<g clip-path="url(#clip0_124_459)">
<path fill-rule="evenodd" clip-rule="evenodd" d="M74.7902 23.3819C81.2469 23.3819 86.4811 18.1477 86.4811 11.691C86.4811 5.23423 81.2469 0 74.7902 0C68.3336 0 63.0993 5.23423 63.0993 11.691C63.0993 18.1477 68.3336 23.3819 74.7902 23.3819ZM58.1632 91.533L66.3372 71.7024L69.0557 80.1123L73.4246 93.6259C75.0922 98.7842 82.2751 99.0903 84.3754 94.0925L88.8253 83.5047L91.1945 88.1192C92.1956 90.0688 94.203 91.2945 96.3945 91.2945H126.477C128.196 94.9186 131.888 97.4251 136.166 97.4251C142.084 97.4251 146.883 92.6268 146.883 86.7083C146.883 80.7894 142.084 75.9915 136.166 75.9915C131.365 75.9915 127.301 79.1489 125.937 83.5005H97.5844L93.849 76.2252C91.5804 71.8069 85.1842 72.0517 83.2599 76.6305L79.2252 86.2309L76.4718 77.7148L72.1205 64.2544C70.4467 59.0771 63.2277 58.7942 61.1539 63.825L51.4543 87.3568H49.2757V61.6282C49.2757 58.8698 50.8683 56.4348 52.7092 54.3806C54.895 51.9415 57.6778 49.6991 60.9532 49.6991H86.6321C89.9351 49.6991 92.7346 51.9504 94.9448 54.4051C97.5118 57.2558 101.231 59.0479 105.369 59.0479C113.114 59.0479 119.392 52.7696 119.392 45.0247C119.392 37.2798 113.114 31.0016 105.369 31.0016C101.792 31.0016 98.5287 32.3404 96.0514 34.5444C93.9729 36.3936 91.5083 38.0133 88.7261 38.0133H58.9056C56.1233 38.0133 53.6588 36.3936 51.5803 34.5444C49.1033 32.3404 45.8395 31.0016 42.2631 31.0016C34.5182 31.0016 28.2398 37.2801 28.2398 45.0247C28.2398 48.6018 29.5789 51.8655 31.783 54.3428C33.6326 56.4217 35.2525 58.8862 35.2525 61.6687V87.3568H21.4578C19.9058 82.9868 16.0152 79.888 11.4612 79.888C5.54253 79.888 0.744507 85.1222 0.744507 91.5792C0.744507 98.0358 5.54253 103.27 11.4612 103.27C16.238 103.27 20.2848 99.8607 21.6685 95.1509H35.2525V96.1589C35.2525 98.9414 33.6326 101.406 31.783 103.485C29.5788 105.962 28.2396 109.226 28.2396 112.803C28.2396 120.548 34.5179 126.826 42.2628 126.826C46.4005 126.826 50.1199 125.034 52.6869 122.183C54.897 119.729 57.6966 117.477 60.9996 117.477H86.6321C89.9351 117.477 92.7346 119.729 94.9448 122.183C97.5118 125.034 101.231 126.826 105.369 126.826C113.114 126.826 119.392 120.548 119.392 112.803C119.392 105.058 113.114 98.7797 105.369 98.7797C101.231 98.7797 97.5118 100.572 94.9448 103.423C92.7343 105.877 89.9351 108.128 86.6318 108.128H60.9529C57.6778 108.128 54.895 105.886 52.7092 103.447C50.8683 101.393 49.2757 98.9581 49.2757 96.1997V95.1509H52.7589C55.1266 95.1509 57.2609 93.7224 58.1632 91.533ZM86.4811 146.137C86.4811 152.594 81.2469 157.828 74.7902 157.828C68.3336 157.828 63.0993 152.594 63.0993 146.137C63.0993 139.68 68.3336 134.446 74.7902 134.446C81.2469 134.446 86.4811 139.68 86.4811 146.137Z" fill="#666666"/>
<path d="M190.998 91.2449V23.3296H221.517V33.5588H206.006V50.4119H217.828V60.8089H206.006V81.0996H221.685V91.2449H190.998Z" fill="#666666"/>
<path d="M228.751 91.2449V23.3296H243.759V50.8312H254.24V23.3296H269.332V91.2449H254.24V61.5635H243.759V91.2449H228.751Z" fill="#666666"/>
<path d="M279.675 91.2449V23.3296H298.372C302.955 23.3296 306.925 23.8327 310.278 24.8388C313.631 25.845 316.231 27.6616 318.077 30.2888C319.977 32.8602 320.927 36.5215 320.927 41.2727C320.927 44.0675 320.704 46.5549 320.257 48.735C319.81 50.9148 318.97 52.8153 317.741 54.4365C316.567 56.0017 314.861 57.3152 312.627 58.3771L321.933 91.2449H306.422L298.959 60.8089H294.683V91.2449H279.675ZM294.683 52.1727H298.876C300.999 52.1727 302.649 51.8094 303.822 51.0828C304.995 50.3002 305.808 49.21 306.255 47.8128C306.758 46.3593 307.008 44.6264 307.008 42.6143C307.008 39.7076 306.478 37.4438 305.415 35.8226C304.355 34.2018 302.398 33.3912 299.546 33.3912H294.683V52.1727Z" fill="#666666"/>
<path d="M351.402 91.2449V23.3296H366.411V81.0996H382.006V91.2449H351.402Z" fill="#666666"/>
<path d="M406.964 92.2506C401.878 92.2506 397.852 91.3561 394.892 89.5675C391.929 87.7787 389.802 85.2073 388.519 81.8536C387.233 78.4996 386.589 74.503 386.589 69.8638V44.6259C386.589 39.9307 387.233 35.9341 388.519 32.636C389.802 29.338 391.929 26.8226 394.892 25.0898C397.852 23.3011 401.878 22.4067 406.964 22.4067C412.107 22.4067 416.16 23.3011 419.123 25.0898C422.139 26.8226 424.292 29.338 425.579 32.636C426.865 35.9341 427.505 39.9307 427.505 44.6259V69.8638C427.505 74.503 426.865 78.4996 425.579 81.8536C424.292 85.2073 422.139 87.7787 419.123 89.5675C416.16 91.3561 412.107 92.2506 406.964 92.2506ZM406.964 81.602C408.53 81.602 409.677 81.2107 410.403 80.4281C411.13 79.6455 411.604 78.6396 411.827 77.4097C412.05 76.1802 412.163 74.9223 412.163 73.6367V40.9366C412.163 39.5951 412.05 38.3375 411.827 37.1636C411.604 35.9341 411.13 34.9278 410.403 34.1452C409.677 33.3626 408.53 32.9714 406.964 32.9714C405.511 32.9714 404.421 33.3626 403.694 34.1452C402.968 34.9278 402.491 35.9341 402.268 37.1636C402.045 38.3375 401.934 39.5951 401.934 40.9366V73.6367C401.934 74.9223 402.018 76.1802 402.185 77.4097C402.408 78.6396 402.855 79.6455 403.528 80.4281C404.254 81.2107 405.401 81.602 406.964 81.602Z" fill="#666666"/>
<path d="M454.333 92.2506C449.637 92.2506 445.92 91.2724 443.181 89.3159C440.498 87.3594 438.568 84.6207 437.395 81.099C436.278 77.5217 435.718 73.4131 435.718 68.7736V45.9674C435.718 41.1602 436.331 36.996 437.561 33.4743C438.791 29.953 440.888 27.2419 443.851 25.3414C446.87 23.3849 450.95 22.4067 456.093 22.4067C461.122 22.4067 465.065 23.2452 467.915 24.9221C470.821 26.5991 472.891 28.9188 474.121 31.8814C475.348 34.8438 475.964 38.3095 475.964 42.2781V46.6384H461.292V41.1046C461.292 39.651 461.179 38.3095 460.956 37.0799C460.789 35.8501 460.342 34.8718 459.613 34.1452C458.943 33.3626 457.826 32.9714 456.259 32.9714C454.64 32.9714 453.466 33.4186 452.74 34.3129C452.013 35.1515 451.537 36.2134 451.313 37.4989C451.146 38.7848 451.063 40.1263 451.063 41.5235V72.9658C451.063 74.475 451.2 75.9005 451.48 77.2421C451.816 78.5276 452.376 79.5898 453.157 80.4281C453.996 81.2107 455.17 81.602 456.679 81.602C458.246 81.602 459.446 81.1827 460.286 80.3444C461.122 79.5059 461.709 78.416 462.046 77.0744C462.382 75.7329 462.549 74.3074 462.549 72.7982V64.8329H456.429V56.0291H476.048V91.2444H466.155L465.315 85.6266C464.422 87.5271 463.109 89.1203 461.376 90.4058C459.642 91.6357 457.296 92.2506 454.333 92.2506Z" fill="#666666"/>
<path d="M485.526 91.2449V23.3296H500.535V91.2449H485.526Z" fill="#666666"/>
<path d="M530.114 92.2506C524.971 92.2506 520.889 91.3284 517.872 89.4836C514.909 87.5831 512.813 84.956 511.583 81.602C510.353 78.1923 509.74 74.1957 509.74 69.6121V45.1292C509.74 40.4336 510.353 36.409 511.583 33.0553C512.813 29.6455 514.909 27.0183 517.872 25.1737C520.889 23.3291 524.971 22.4067 530.114 22.4067C535.144 22.4067 539.057 23.2452 541.853 24.9221C544.703 26.5432 546.716 28.835 547.889 31.7975C549.062 34.7602 549.649 38.1698 549.649 42.0268V47.8959H534.977V41.1046C534.977 39.763 534.894 38.4772 534.724 37.2476C534.614 36.0177 534.221 35.0115 533.551 34.2289C532.881 33.3906 531.734 32.9714 530.114 32.9714C528.548 32.9714 527.375 33.3906 526.591 34.2289C525.865 35.0675 525.388 36.1297 525.165 37.4152C524.998 38.6448 524.915 39.9587 524.915 41.3559V73.3014C524.915 74.8106 525.025 76.2079 525.251 77.4937C525.528 78.7233 526.031 79.7295 526.758 80.5121C527.541 81.2387 528.661 81.602 530.114 81.602C531.678 81.602 532.797 81.2107 533.467 80.4281C534.137 79.5898 534.557 78.5276 534.724 77.2421C534.894 75.9565 534.977 74.643 534.977 73.3014V66.1745H549.649V72.0436C549.649 75.9005 549.062 79.3662 547.889 82.4406C546.769 85.459 544.786 87.8627 541.936 89.6512C539.14 91.3841 535.2 92.2506 530.114 92.2506Z" fill="#666666"/>
<path d="M190.108 130.701V105.732H199.756V108.229H193.591V116.552H198.369V119.018H193.591V130.701H190.108Z" fill="#666666"/>
<path d="M206.773 130.949C205.458 130.949 204.42 130.681 203.659 130.147C202.899 129.613 202.354 128.852 202.026 127.866C201.717 126.88 201.563 125.719 201.563 124.383V119.204C201.563 117.868 201.717 116.707 202.026 115.721C202.354 114.734 202.899 113.974 203.659 113.44C204.42 112.905 205.458 112.638 206.773 112.638C208.088 112.638 209.116 112.905 209.855 113.44C210.616 113.974 211.15 114.734 211.458 115.721C211.787 116.707 211.951 117.868 211.951 119.204V124.383C211.951 125.719 211.787 126.88 211.458 127.866C211.15 128.852 210.616 129.613 209.855 130.147C209.116 130.681 208.088 130.949 206.773 130.949ZM206.773 128.514C207.41 128.514 207.852 128.329 208.098 127.959C208.366 127.589 208.519 127.106 208.561 126.51C208.622 125.893 208.653 125.256 208.653 124.599V119.019C208.653 118.341 208.622 117.704 208.561 117.108C208.519 116.512 208.366 116.029 208.098 115.659C207.852 115.269 207.41 115.074 206.773 115.074C206.136 115.074 205.684 115.269 205.416 115.659C205.149 116.029 204.985 116.512 204.923 117.108C204.882 117.704 204.862 118.341 204.862 119.019V124.599C204.862 125.256 204.882 125.893 204.923 126.51C204.985 127.106 205.149 127.589 205.416 127.959C205.684 128.329 206.136 128.514 206.773 128.514Z" fill="#666666"/>
<path d="M215.059 130.701V112.884H218.357V115.412C219.015 114.323 219.673 113.593 220.33 113.223C220.988 112.853 221.646 112.668 222.303 112.668C222.385 112.668 222.457 112.668 222.519 112.668C222.601 112.668 222.704 112.679 222.827 112.699V116.337C222.581 116.234 222.293 116.152 221.964 116.09C221.656 116.008 221.337 115.967 221.009 115.967C220.495 115.967 220.022 116.09 219.591 116.337C219.18 116.563 218.768 117.015 218.357 117.693V130.701H215.059Z" fill="#666666"/>
<path d="M232.192 130.701V105.732H237.926C239.056 105.732 240.032 105.855 240.854 106.102C241.697 106.348 242.395 106.729 242.95 107.242C243.505 107.756 243.916 108.414 244.183 109.215C244.45 109.996 244.584 110.921 244.584 111.989C244.584 113.017 244.45 113.911 244.183 114.671C243.937 115.411 243.546 115.997 243.012 116.428C242.498 116.86 241.83 117.137 241.008 117.261C242.015 117.487 242.827 117.877 243.444 118.432C244.06 118.966 244.512 119.665 244.8 120.528C245.108 121.371 245.262 122.388 245.262 123.58C245.262 124.649 245.139 125.625 244.892 126.508C244.646 127.392 244.255 128.142 243.721 128.759C243.207 129.375 242.539 129.858 241.717 130.207C240.916 130.536 239.96 130.701 238.851 130.701H232.192ZM235.675 128.204H238.018C239.58 128.204 240.618 127.844 241.132 127.125C241.666 126.385 241.933 125.203 241.933 123.58C241.933 122.532 241.789 121.659 241.501 120.96C241.234 120.24 240.792 119.706 240.176 119.357C239.58 118.987 238.768 118.802 237.741 118.802H235.675V128.204ZM235.675 116.151H237.741C238.727 116.151 239.498 116.017 240.053 115.75C240.607 115.462 240.998 115.01 241.224 114.394C241.45 113.777 241.563 112.976 241.563 111.989C241.563 110.839 241.389 110.006 241.039 109.492C240.69 108.979 240.145 108.66 239.405 108.537C238.666 108.393 237.7 108.321 236.508 108.321H235.675V116.151Z" fill="#666666"/>
<path d="M253.012 130.949C251.615 130.949 250.536 130.681 249.775 130.147C249.015 129.592 248.481 128.791 248.172 127.743C247.885 126.674 247.741 125.369 247.741 123.828V119.759C247.741 118.176 247.895 116.861 248.203 115.813C248.512 114.765 249.046 113.974 249.806 113.44C250.587 112.905 251.656 112.638 253.012 112.638C254.512 112.638 255.612 112.946 256.311 113.563C257.03 114.18 257.502 115.074 257.728 116.245C257.955 117.396 258.068 118.783 258.068 120.406V121.855H251.039V125.431C251.039 126.15 251.101 126.736 251.224 127.188C251.368 127.64 251.584 127.979 251.872 128.205C252.18 128.411 252.57 128.514 253.043 128.514C253.536 128.514 253.906 128.4 254.153 128.174C254.42 127.928 254.595 127.589 254.677 127.157C254.779 126.705 254.831 126.181 254.831 125.585V124.506H258.037V125.184C258.037 126.972 257.657 128.38 256.896 129.408C256.136 130.435 254.841 130.949 253.012 130.949ZM251.039 120.067H254.831V118.464C254.831 117.724 254.79 117.108 254.708 116.615C254.626 116.101 254.451 115.721 254.184 115.474C253.937 115.207 253.536 115.074 252.981 115.074C252.447 115.074 252.036 115.197 251.748 115.443C251.481 115.69 251.296 116.111 251.194 116.707C251.091 117.282 251.039 118.084 251.039 119.112V120.067Z" fill="#666666"/>
<path d="M265.802 130.948C264.877 130.948 264.127 130.774 263.552 130.424C262.997 130.075 262.586 129.582 262.319 128.945C262.072 128.307 261.949 127.558 261.949 126.694V115.073H260.068V112.884H261.949V107.675H265.247V112.884H268.114V115.073H265.247V126.479C265.247 127.177 265.36 127.681 265.586 127.989C265.812 128.277 266.244 128.421 266.881 128.421C267.045 128.421 267.23 128.41 267.436 128.39C267.662 128.369 267.878 128.349 268.083 128.328V130.763C267.672 130.825 267.292 130.866 266.943 130.887C266.593 130.928 266.213 130.948 265.802 130.948Z" fill="#666666"/>
<path d="M275.284 130.948C274.36 130.948 273.609 130.774 273.034 130.424C272.479 130.075 272.068 129.582 271.801 128.945C271.554 128.307 271.431 127.558 271.431 126.694V115.073H269.551V112.884H271.431V107.675H274.729V112.884H277.596V115.073H274.729V126.479C274.729 127.177 274.842 127.681 275.069 127.989C275.295 128.277 275.726 128.421 276.363 128.421C276.527 128.421 276.712 128.41 276.918 128.39C277.144 128.369 277.36 128.349 277.565 128.328V130.763C277.154 130.825 276.774 130.866 276.425 130.887C276.075 130.928 275.695 130.948 275.284 130.948Z" fill="#666666"/>
<path d="M284.952 130.949C283.554 130.949 282.475 130.681 281.715 130.147C280.955 129.592 280.42 128.791 280.112 127.743C279.824 126.674 279.68 125.369 279.68 123.828V119.759C279.68 118.176 279.835 116.861 280.143 115.813C280.451 114.765 280.985 113.974 281.746 113.44C282.527 112.905 283.595 112.638 284.952 112.638C286.452 112.638 287.551 112.946 288.25 113.563C288.969 114.18 289.442 115.074 289.668 116.245C289.894 117.396 290.007 118.783 290.007 120.406V121.855H282.979V125.431C282.979 126.15 283.04 126.736 283.164 127.188C283.308 127.64 283.523 127.979 283.811 128.205C284.119 128.411 284.51 128.514 284.983 128.514C285.476 128.514 285.846 128.4 286.092 128.174C286.36 127.928 286.534 127.589 286.616 127.157C286.719 126.705 286.77 126.181 286.77 125.585V124.506H289.976V125.184C289.976 126.972 289.596 128.38 288.836 129.408C288.075 130.435 286.781 130.949 284.952 130.949ZM282.979 120.067H286.77V118.464C286.77 117.724 286.729 117.108 286.647 116.615C286.565 116.101 286.39 115.721 286.123 115.474C285.877 115.207 285.476 115.074 284.921 115.074C284.387 115.074 283.975 115.197 283.688 115.443C283.421 115.69 283.236 116.111 283.133 116.707C283.03 117.282 282.979 118.084 282.979 119.112V120.067Z" fill="#666666"/>
<path d="M293.087 130.701V112.884H296.385V115.412C297.043 114.323 297.701 113.593 298.357 113.223C299.016 112.853 299.674 112.668 300.332 112.668C300.412 112.668 300.484 112.668 300.546 112.668C300.63 112.668 300.731 112.679 300.856 112.699V116.337C300.609 116.234 300.32 116.152 299.992 116.09C299.683 116.008 299.364 115.967 299.036 115.967C298.521 115.967 298.051 116.09 297.618 116.337C297.207 116.563 296.796 117.015 296.385 117.693V130.701H293.087Z" fill="#666666"/>
<path d="M302.899 130.702V112.885H305.951V114.58C306.547 113.902 307.205 113.399 307.922 113.07C308.643 112.741 309.382 112.577 310.144 112.577C310.799 112.577 311.386 112.741 311.901 113.07C312.434 113.399 312.815 113.984 313.041 114.827C313.676 114.046 314.367 113.481 315.105 113.131C315.865 112.762 316.657 112.577 317.479 112.577C318.053 112.577 318.577 112.72 319.051 113.008C319.524 113.275 319.906 113.717 320.191 114.334C320.48 114.93 320.623 115.721 320.623 116.707V130.702H317.604V116.923C317.604 116.06 317.458 115.485 317.172 115.197C316.904 114.889 316.535 114.734 316.061 114.734C315.608 114.734 315.135 114.868 314.644 115.135C314.149 115.382 313.697 115.731 313.286 116.183C313.286 116.265 313.286 116.348 313.286 116.43C313.286 116.512 313.286 116.605 313.286 116.707V130.702H310.266V116.923C310.266 116.06 310.123 115.485 309.834 115.197C309.566 114.889 309.197 114.734 308.724 114.734C308.274 114.734 307.8 114.868 307.306 115.135C306.833 115.382 306.383 115.731 305.951 116.183V130.702H302.899Z" fill="#666666"/>
<path d="M328.782 130.949C327.386 130.949 326.305 130.681 325.545 130.147C324.786 129.592 324.25 128.791 323.943 127.743C323.654 126.674 323.511 125.369 323.511 123.828V119.759C323.511 118.176 323.666 116.861 323.973 115.813C324.283 114.765 324.816 113.974 325.575 113.44C326.358 112.905 327.424 112.638 328.782 112.638C330.283 112.638 331.382 112.946 332.082 113.563C332.799 114.18 333.273 115.074 333.499 116.245C333.725 117.396 333.839 118.783 333.839 120.406V121.855H326.808V125.431C326.808 126.15 326.87 126.736 326.995 127.188C327.138 127.64 327.353 127.979 327.642 128.205C327.948 128.411 328.341 128.514 328.812 128.514C329.306 128.514 329.676 128.4 329.923 128.174C330.191 127.928 330.363 127.589 330.447 127.157C330.548 126.705 330.602 126.181 330.602 125.585V124.506H333.806V125.184C333.806 126.972 333.428 128.38 332.665 129.408C331.906 130.435 330.611 130.949 328.782 130.949ZM326.808 120.067H330.602V118.464C330.602 117.724 330.56 117.108 330.477 116.615C330.396 116.101 330.221 115.721 329.953 115.474C329.708 115.207 329.306 115.074 328.752 115.074C328.216 115.074 327.805 115.197 327.52 115.443C327.252 115.69 327.067 116.111 326.963 116.707C326.861 117.282 326.808 118.084 326.808 119.112V120.067Z" fill="#666666"/>
<path d="M336.826 130.702V112.885H340.122V114.642C340.718 114.087 341.376 113.614 342.096 113.224C342.814 112.834 343.606 112.638 344.47 112.638C345.187 112.638 345.732 112.823 346.102 113.193C346.495 113.563 346.76 114.025 346.906 114.58C347.069 115.135 347.15 115.7 347.15 116.276V130.702H343.853V117.231C343.853 116.594 343.761 116.101 343.576 115.752C343.392 115.402 343.011 115.227 342.436 115.227C342.064 115.227 341.674 115.341 341.263 115.567C340.873 115.772 340.494 116.029 340.122 116.337V130.702H336.826Z" fill="#666666"/>
<path d="M355.119 130.948C354.193 130.948 353.442 130.774 352.868 130.424C352.314 130.075 351.903 129.582 351.635 128.945C351.388 128.307 351.265 127.558 351.265 126.694V115.073H349.383V112.884H351.265V107.675H354.565V112.884H357.43V115.073H354.565V126.479C354.565 127.177 354.675 127.681 354.901 127.989C355.128 128.277 355.56 128.421 356.197 128.421C356.361 128.421 356.545 128.41 356.751 128.39C356.977 128.369 357.194 128.349 357.4 128.328V130.763C356.989 130.825 356.608 130.866 356.259 130.887C355.911 130.928 355.53 130.948 355.119 130.948Z" fill="#666666"/>
<path d="M373.555 130.98C371.872 130.98 370.526 130.651 369.517 129.993C368.51 129.336 367.793 128.401 367.361 127.188C366.929 125.955 366.712 124.516 366.712 122.872V113.409C366.712 111.765 366.929 110.357 367.361 109.186C367.813 107.994 368.531 107.09 369.517 106.473C370.526 105.836 371.872 105.518 373.555 105.518C375.24 105.518 376.577 105.836 377.563 106.473C378.549 107.11 379.257 108.015 379.689 109.186C380.142 110.357 380.368 111.765 380.368 113.409V122.903C380.368 124.527 380.142 125.945 379.689 127.157C379.257 128.37 378.549 129.315 377.563 129.993C376.577 130.651 375.24 130.98 373.555 130.98ZM373.555 128.236C374.481 128.236 375.181 128.051 375.651 127.681C376.125 127.291 376.443 126.756 376.607 126.078C376.771 125.38 376.854 124.568 376.854 123.643V112.7C376.854 111.775 376.771 110.984 376.607 110.326C376.443 109.648 376.125 109.135 375.651 108.785C375.181 108.415 374.481 108.23 373.555 108.23C372.632 108.23 371.923 108.415 371.429 108.785C370.955 109.135 370.639 109.648 370.473 110.326C370.309 110.984 370.225 111.775 370.225 112.7V123.643C370.225 124.568 370.309 125.38 370.473 126.078C370.639 126.756 370.955 127.291 371.429 127.681C371.923 128.051 372.632 128.236 373.555 128.236Z" fill="#666666"/>
<path d="M384.564 130.702V115.32H382.435V112.884H384.564V111.96C384.564 110.85 384.645 109.905 384.808 109.124C384.996 108.322 385.365 107.706 385.919 107.274C386.473 106.843 387.307 106.627 388.418 106.627C388.829 106.627 389.186 106.647 389.496 106.689C389.823 106.709 390.184 106.76 390.574 106.843V109.247C390.389 109.206 390.184 109.175 389.957 109.155C389.731 109.113 389.525 109.093 389.341 109.093C388.704 109.093 388.293 109.309 388.108 109.74C387.944 110.151 387.861 110.706 387.861 111.405V112.884H390.574V115.32H387.861V130.702H384.564Z" fill="#666666"/>
<path d="M399.686 130.701V105.732H405.883C407.384 105.732 408.575 106.009 409.459 106.564C410.362 107.098 411.02 107.879 411.431 108.907C411.842 109.934 412.047 111.178 412.047 112.637C412.047 113.952 411.812 115.093 411.338 116.058C410.886 117.024 410.21 117.774 409.304 118.309C408.399 118.822 407.27 119.079 405.913 119.079H403.17V130.701H399.686ZM403.17 116.582H404.772C405.779 116.582 406.571 116.469 407.145 116.243C407.723 116.017 408.134 115.627 408.378 115.072C408.625 114.496 408.75 113.695 408.75 112.668C408.75 111.476 408.658 110.561 408.474 109.924C408.307 109.287 407.949 108.845 407.393 108.599C406.839 108.352 405.975 108.229 404.805 108.229H403.17V116.582Z" fill="#666666"/>
<path d="M416.779 130.949C416.079 130.949 415.534 130.764 415.144 130.394C414.754 130.024 414.477 129.562 414.313 129.007C414.17 128.452 414.096 127.887 414.096 127.311V112.885H417.395V126.325C417.395 126.962 417.488 127.465 417.672 127.835C417.857 128.185 418.238 128.359 418.813 128.359C419.182 128.359 419.563 128.257 419.953 128.051C420.364 127.825 420.754 127.558 421.127 127.249V112.885H424.423V130.702H421.127V128.945C420.549 129.5 419.891 129.972 419.152 130.363C418.432 130.754 417.642 130.949 416.779 130.949Z" fill="#666666"/>
<path d="M434.178 130.947C433.541 130.947 432.966 130.793 432.451 130.485C431.957 130.156 431.525 129.797 431.156 129.406V130.701H427.859V105.732H431.156V114.301C431.546 113.849 432.011 113.459 432.544 113.13C433.097 112.801 433.756 112.637 434.518 112.637C435.441 112.637 436.171 112.883 436.707 113.376C437.261 113.849 437.671 114.455 437.939 115.195C438.205 115.915 438.38 116.655 438.464 117.415C438.544 118.154 438.586 118.792 438.586 119.326V123.642C438.586 124.895 438.464 126.087 438.216 127.217C437.969 128.327 437.529 129.231 436.891 129.93C436.254 130.608 435.349 130.947 434.178 130.947ZM433.499 128.358C434.074 128.358 434.485 128.152 434.732 127.741C434.979 127.31 435.134 126.734 435.194 126.015C435.256 125.296 435.286 124.505 435.286 123.642V119.326C435.286 118.586 435.248 117.908 435.164 117.291C435.081 116.655 434.908 116.151 434.64 115.781C434.372 115.411 433.952 115.226 433.377 115.226C432.946 115.226 432.535 115.319 432.142 115.504C431.772 115.688 431.445 115.894 431.156 116.12V127.557C431.445 127.783 431.784 127.978 432.174 128.142C432.585 128.286 433.026 128.358 433.499 128.358Z" fill="#666666"/>
<path d="M441.891 130.701V105.732H445.191V130.701H441.891Z" fill="#666666"/>
<path d="M448.845 130.702V112.884H452.141V130.702H448.845ZM448.845 110.233V106.781H452.141V110.233H448.845Z" fill="#666666"/>
<path d="M460.542 130.949C459.083 130.949 457.975 130.661 457.213 130.086C456.474 129.49 455.971 128.657 455.703 127.589C455.456 126.52 455.334 125.277 455.334 123.859V119.759C455.334 118.259 455.468 116.985 455.733 115.936C456.001 114.868 456.504 114.056 457.246 113.501C458.005 112.926 459.104 112.638 460.542 112.638C461.837 112.638 462.835 112.854 463.532 113.286C464.253 113.697 464.747 114.323 465.012 115.166C465.28 115.988 465.414 117.015 465.414 118.249V119.296H462.424V118.218C462.424 117.437 462.373 116.82 462.269 116.368C462.168 115.916 461.98 115.587 461.715 115.382C461.447 115.176 461.066 115.074 460.575 115.074C460.039 115.074 459.628 115.197 459.342 115.443C459.053 115.69 458.857 116.111 458.755 116.707C458.672 117.282 458.633 118.074 458.633 119.081V124.691C458.633 126.212 458.776 127.229 459.062 127.743C459.351 128.257 459.866 128.514 460.605 128.514C461.158 128.514 461.56 128.39 461.808 128.143C462.073 127.876 462.239 127.506 462.299 127.034C462.382 126.561 462.424 126.027 462.424 125.431V123.982H465.414V125.215C465.414 126.407 465.271 127.435 464.982 128.298C464.714 129.161 464.223 129.818 463.502 130.271C462.802 130.723 461.817 130.949 460.542 130.949Z" fill="#666666"/>
<path d="M475.667 130.701V105.732H479.151V116.521H485.562V105.732H489.046V130.701H485.562V119.018H479.151V130.701H475.667Z" fill="#666666"/>
<path d="M497.601 130.949C496.205 130.949 495.124 130.681 494.364 130.147C493.605 129.592 493.069 128.791 492.762 127.743C492.474 126.674 492.331 125.369 492.331 123.828V119.759C492.331 118.176 492.485 116.861 492.792 115.813C493.102 114.765 493.635 113.974 494.394 113.44C495.177 112.905 496.244 112.638 497.601 112.638C499.102 112.638 500.201 112.946 500.901 113.563C501.619 114.18 502.092 115.074 502.318 116.245C502.545 117.396 502.658 118.783 502.658 120.406V121.855H495.627V125.431C495.627 126.15 495.69 126.736 495.815 127.188C495.958 127.64 496.172 127.979 496.461 128.205C496.768 128.411 497.161 128.514 497.631 128.514C498.126 128.514 498.495 128.4 498.742 128.174C499.01 127.928 499.183 127.589 499.266 127.157C499.367 126.705 499.421 126.181 499.421 125.585V124.506H502.625V125.184C502.625 126.972 502.247 128.38 501.485 129.408C500.725 130.435 499.43 130.949 497.601 130.949ZM495.627 120.067H499.421V118.464C499.421 117.724 499.379 117.108 499.296 116.615C499.215 116.101 499.04 115.721 498.772 115.474C498.525 115.207 498.126 115.074 497.572 115.074C497.036 115.074 496.625 115.197 496.339 115.443C496.071 115.69 495.886 116.111 495.782 116.707C495.681 117.282 495.627 118.084 495.627 119.112V120.067Z" fill="#666666"/>
<path d="M508.849 130.949C508.152 130.949 507.536 130.754 507 130.363C506.467 129.952 506.044 129.438 505.737 128.822C505.428 128.185 505.273 127.517 505.273 126.818C505.273 125.708 505.46 124.773 505.83 124.013C506.199 123.253 506.702 122.616 507.339 122.102C507.997 121.567 508.748 121.105 509.591 120.715C510.451 120.324 511.357 119.944 512.303 119.574V118.31C512.303 117.591 512.262 116.995 512.178 116.522C512.098 116.05 511.922 115.7 511.654 115.474C511.407 115.227 511.029 115.104 510.514 115.104C510.061 115.104 509.692 115.207 509.406 115.412C509.138 115.618 508.941 115.916 508.819 116.306C508.694 116.676 508.635 117.118 508.635 117.632V118.526L505.365 118.402C505.407 116.43 505.859 114.981 506.723 114.056C507.587 113.111 508.921 112.638 510.731 112.638C512.497 112.638 513.751 113.121 514.492 114.087C515.231 115.053 515.6 116.45 515.6 118.279V126.417C515.6 126.972 515.612 127.506 515.633 128.02C515.671 128.534 515.713 129.017 515.755 129.469C515.817 129.901 515.868 130.312 515.91 130.702H512.887C512.828 130.373 512.744 129.962 512.64 129.469C512.56 128.955 512.497 128.493 512.455 128.082C512.25 128.781 511.851 129.438 511.255 130.055C510.678 130.651 509.877 130.949 508.849 130.949ZM510.145 128.113C510.472 128.113 510.782 128.02 511.071 127.835C511.356 127.65 511.613 127.445 511.839 127.219C512.065 126.972 512.22 126.777 512.303 126.633V121.578C511.788 121.865 511.306 122.153 510.853 122.441C510.401 122.728 510.002 123.037 509.65 123.365C509.323 123.674 509.055 124.033 508.849 124.445C508.665 124.835 508.572 125.287 508.572 125.801C508.572 126.52 508.706 127.085 508.974 127.496C509.239 127.907 509.629 128.113 510.145 128.113Z" fill="#666666"/>
<path d="M519.078 130.701V105.732H522.375V130.701H519.078Z" fill="#666666"/>
<path d="M530.561 130.948C529.635 130.948 528.884 130.774 528.309 130.424C527.755 130.075 527.344 129.582 527.076 128.945C526.829 128.307 526.707 127.558 526.707 126.694V115.073H524.825V112.884H526.707V107.675H530.004V112.884H532.871V115.073H530.004V126.479C530.004 127.177 530.117 127.681 530.343 127.989C530.57 128.277 531.001 128.421 531.639 128.421C531.802 128.421 531.987 128.41 532.192 128.39C532.419 128.369 532.636 128.349 532.842 128.328V130.763C532.431 130.825 532.05 130.866 531.701 130.887C531.35 130.928 530.972 130.948 530.561 130.948Z" fill="#666666"/>
<path d="M535.388 130.701V105.732H538.688V114.733C539.283 114.158 539.95 113.664 540.689 113.253C541.43 112.842 542.252 112.637 543.158 112.637C543.854 112.637 544.39 112.822 544.76 113.192C545.15 113.562 545.418 114.024 545.561 114.579C545.724 115.134 545.808 115.699 545.808 116.274V130.701H542.508V117.23C542.508 116.593 542.416 116.099 542.231 115.75C542.047 115.401 541.666 115.226 541.091 115.226C540.701 115.226 540.29 115.339 539.858 115.565C539.447 115.791 539.057 116.069 538.688 116.398V130.701H535.388Z" fill="#666666"/>
<path d="M191.537 91.2448V23.3296H222.057V33.5587H206.546V50.412H218.368V60.8087H206.546V81.0994H222.225V91.2448H191.537Z" fill="#666666"/>
<path d="M229.29 91.2448V23.3296H244.298V50.831H254.779V23.3296H269.871V91.2448H254.779V61.5633H244.298V91.2448H229.29Z" fill="#666666"/>
<path d="M280.214 91.2448V23.3296H298.911C303.494 23.3296 307.464 23.8327 310.817 24.8388C314.173 25.845 316.77 27.6616 318.616 30.289C320.516 32.8601 321.466 36.5214 321.466 41.2726C321.466 44.0676 321.242 46.5551 320.796 48.7349C320.349 50.915 319.509 52.8155 318.279 54.4366C317.106 56.0015 315.403 57.3154 313.166 58.3773L322.472 91.2448H306.96L299.498 60.8087H295.222V91.2448H280.214ZM295.222 52.1725H299.414C301.538 52.1725 303.187 51.8092 304.361 51.0826C305.537 50.3001 306.347 49.2101 306.794 47.8126C307.297 46.3594 307.547 44.6266 307.547 42.6141C307.547 39.7074 307.017 37.4436 305.954 35.8228C304.894 34.2016 302.937 33.391 300.084 33.391H295.222V52.1725Z" fill="#666666"/>
<path d="M351.346 91.2449V23.3296H366.354V81.0996H381.949V91.2449H351.346Z" fill="#666666"/>
<path d="M406.907 92.2506C401.821 92.2506 397.798 91.3561 394.835 89.5675C391.872 87.7787 389.748 85.2073 388.462 81.8536C387.175 78.4996 386.535 74.503 386.535 69.8638V44.6259C386.535 39.9307 387.175 35.9341 388.462 32.636C389.748 29.338 391.872 26.8226 394.835 25.0898C397.798 23.3011 401.821 22.4067 406.907 22.4067C412.05 22.4067 416.103 23.3011 419.066 25.0898C422.085 26.8226 424.235 29.338 425.522 32.636C426.808 35.9341 427.451 39.9307 427.451 44.6259V69.8638C427.451 74.503 426.808 78.4996 425.522 81.8536C424.235 85.2073 422.085 87.7787 419.066 89.5675C416.103 91.3561 412.05 92.2506 406.907 92.2506ZM406.907 81.602C408.473 81.602 409.62 81.2107 410.346 80.4281C411.073 79.6455 411.546 78.6396 411.773 77.4097C411.996 76.1802 412.106 74.9223 412.106 73.6367V40.9366C412.106 39.5951 411.996 38.3375 411.773 37.1636C411.546 35.9341 411.073 34.9278 410.346 34.1452C409.62 33.3626 408.473 32.9714 406.907 32.9714C405.454 32.9714 404.364 33.3626 403.637 34.1452C402.911 34.9278 402.437 35.9341 402.214 37.1636C401.99 38.3375 401.877 39.5951 401.877 40.9366V73.6367C401.877 74.9223 401.961 76.1802 402.13 77.4097C402.354 78.6396 402.8 79.6455 403.47 80.4281C404.197 81.2107 405.343 81.602 406.907 81.602Z" fill="#666666"/>
<path d="M454.276 92.2506C449.58 92.2506 445.863 91.2724 443.124 89.3159C440.441 87.3594 438.514 84.6207 437.338 81.099C436.221 77.5217 435.661 73.4131 435.661 68.7736V45.9674C435.661 41.1602 436.278 36.996 437.508 33.4743C438.737 29.953 440.834 27.2419 443.794 25.3414C446.813 23.3849 450.893 22.4067 456.036 22.4067C461.069 22.4067 465.008 23.2452 467.858 24.9221C470.765 26.5991 472.834 28.9188 474.064 31.8814C475.294 34.8438 475.907 38.3095 475.907 42.2781V46.6384H461.235V41.1046C461.235 39.651 461.122 38.3095 460.899 37.0799C460.732 35.8501 460.285 34.8718 459.559 34.1452C458.889 33.3626 457.769 32.9714 456.206 32.9714C454.583 32.9714 453.409 33.4186 452.683 34.3129C451.956 35.1515 451.48 36.2134 451.256 37.4989C451.09 38.7848 451.006 40.1263 451.006 41.5235V72.9658C451.006 74.475 451.146 75.9005 451.426 77.2421C451.76 78.5276 452.32 79.5898 453.103 80.4281C453.94 81.2107 455.116 81.602 456.623 81.602C458.189 81.602 459.392 81.1827 460.229 80.3444C461.069 79.5059 461.655 78.416 461.989 77.0744C462.325 75.7329 462.492 74.3074 462.492 72.7982V64.8329H456.372V56.0291H475.991V91.2444H466.098L465.258 85.6266C464.365 87.5271 463.052 89.1203 461.319 90.4058C459.586 91.6357 457.239 92.2506 454.276 92.2506Z" fill="#666666"/>
<path d="M485.47 91.2449V23.3296H500.478V91.2449H485.47Z" fill="#666666"/>
<path d="M530.058 92.2506C524.915 92.2506 520.835 91.3284 517.815 89.4836C514.852 87.5831 512.756 84.956 511.526 81.602C510.296 78.1923 509.683 74.1957 509.683 69.6121V45.1292C509.683 40.4336 510.296 36.409 511.526 33.0553C512.756 29.6455 514.852 27.0183 517.815 25.1737C520.835 23.3291 524.915 22.4067 530.058 22.4067C535.087 22.4067 539 23.2452 541.796 24.9221C544.646 26.5432 546.659 28.835 547.833 31.7975C549.006 34.7602 549.592 38.1698 549.592 42.0268V47.8959H534.92V41.1046C534.92 39.763 534.837 38.4772 534.67 37.2476C534.557 36.0177 534.167 35.0115 533.494 34.2289C532.824 33.3906 531.678 32.9714 530.058 32.9714C528.491 32.9714 527.318 33.3906 526.535 34.2289C525.808 35.0675 525.335 36.1297 525.111 37.4152C524.942 38.6448 524.858 39.9587 524.858 41.3559V73.3014C524.858 74.8106 524.971 76.2079 525.195 77.4937C525.475 78.7233 525.978 79.7295 526.704 80.5121C527.488 81.2387 528.604 81.602 530.058 81.602C531.624 81.602 532.741 81.2107 533.411 80.4281C534.081 79.5898 534.501 78.5276 534.67 77.2421C534.837 75.9565 534.92 74.643 534.92 73.3014V66.1745H549.592V72.0436C549.592 75.9005 549.006 79.3662 547.833 82.4406C546.716 85.459 544.73 87.8627 541.88 89.6512C539.084 91.3841 535.144 92.2506 530.058 92.2506Z" fill="#666666"/>
</g>
<defs>
<clipPath id="clip0_124_459">
<rect width="553.887" height="157.828" fill="white"/>
</clipPath>
</defs>
</svg>
