<svg width="578" height="159" viewBox="0 0 578 159" fill="none" xmlns="http://www.w3.org/2000/svg">
<path d="M19.5516 1.03554C15.5048 3.38622 11.4894 6.80254 8.65039 10.2972C4.00756 16.0172 0.995997 23.1946 0.180365 30.4503C-0.0862836 32.7854 -0.0549132 37.5181 0.258791 39.7747C1.79594 51.293 7.70927 60.7741 19.3948 70.4589C22.0926 72.6998 26.4688 75.9438 32.3351 80.0496C43.1736 87.6502 46.2479 90.0792 51.0789 94.9216C55.7061 99.5603 58.3569 103.133 60.8195 108.101C63.6114 113.758 64.8192 118.946 64.5839 124.399C64.5368 125.684 64.4271 127.063 64.3486 127.455L64.2075 128.16L65.8544 126.436C74.199 117.723 79.7829 106.142 81.5867 93.8403C82.7788 85.7226 82.2298 77.3855 80.0652 70.6469C78.1516 64.7075 75.0303 59.6928 69.9953 54.5213C65.9642 50.3841 61.1488 46.3879 49.8241 37.7374C38.6562 29.2123 33.8252 25.2318 29.9823 21.3611C25.7316 17.0985 23.0808 13.2277 21.6848 9.23157C20.6496 6.31673 20.4457 2.86906 21.1358 0.471375C21.2613 0.0796051 21.1201 0.126617 19.5516 1.03554Z" fill="#666666"/>
<path d="M5.9838 63.2659C5.9838 63.2972 5.73284 64.2218 5.43482 65.3032C4.11726 70.1455 3.48985 74.4395 3.36437 79.7363C3.20752 86.5376 3.96041 92.1322 5.85832 97.9619C8.03857 104.732 11.2854 110.248 15.7714 114.887C17.9046 117.081 19.7241 118.554 27.1589 124.117C34.7348 129.79 36.3033 131.2 38.86 134.758C40.0678 136.419 41.7147 139.679 42.3735 141.669C43.0323 143.675 43.895 147.107 44.193 148.893C44.6793 151.871 44.4597 155.224 43.644 157.371C43.4872 157.81 43.4087 158.139 43.4715 158.092C43.5499 158.045 44.3028 157.105 45.1655 156.008C54.5766 143.972 58.9999 133.332 58.9999 122.707C58.9999 113.461 56.1765 106.785 49.0084 99.0745C44.742 94.4829 41.5422 91.9128 32.1468 85.519C24.1473 80.0654 21.967 78.4826 18.2183 75.3641C15.5675 73.1544 9.84237 67.4971 7.70918 64.9584C6.42299 63.4383 5.9838 63.0152 5.9838 63.2659Z" fill="#666666"/>
<path d="M281.477 76.0548V109.923H286.696H291.914L292.005 90.382L292.141 70.7954L309.976 92.6036C319.732 104.619 327.992 114.548 328.218 114.684C328.536 114.865 328.672 103.53 328.672 81.1781V47.3549H323.454H318.235L318.144 66.9415L318.008 86.5735L300.355 65.0373C290.644 53.2037 282.43 43.1837 282.067 42.821C281.568 42.2769 281.477 47.6723 281.477 76.0548Z" fill="#666666"/>
<path d="M423.744 57.0099C410.81 85.0296 400.736 106.974 400.101 108.425L399.465 109.921H405.274H411.128L413.397 104.798L415.711 99.7195L430.641 99.5835L445.571 99.4928L447.795 104.526C449.02 107.291 450.246 109.649 450.518 109.74C450.79 109.876 453.513 109.876 456.508 109.83L462.044 109.694L446.661 76.4151C438.174 58.098 431.095 42.9547 430.868 42.728C430.687 42.5466 427.465 48.9395 423.744 57.0099ZM435.905 78.41L440.625 88.8381L430.868 88.9741C425.513 89.0195 421.021 89.0195 420.93 88.9288C420.839 88.7928 422.972 83.8961 425.65 78.002C428.327 72.1079 430.641 67.4379 430.823 67.6193C431.004 67.846 433.319 72.6519 435.905 78.41Z" fill="#666666"/>
<path d="M129 78.6367V109.921H147.152H165.304V104.707V99.4928H152.144H138.984V91.7852V84.0775L149.557 83.9868L160.085 83.8508V78.6367V73.4227L149.557 73.2867L138.984 73.196V65.4883V57.7806H152.144H165.304V52.5666V47.3526H147.152H129V78.6367Z" fill="#666666"/>
<path d="M169.389 47.5343C169.389 47.7156 172.793 55.1513 188.313 88.8384C194.167 101.533 199.34 112.687 199.794 113.548L200.611 115.135L202.29 111.508C203.197 109.513 210.095 94.5965 217.583 78.4104C225.07 62.1789 231.378 48.5771 231.605 48.1237C232.014 47.3982 231.605 47.3529 226.023 47.3529H219.988L210.413 68.481C205.149 80.0879 200.656 89.5185 200.429 89.4732C200.202 89.3825 195.755 79.9066 190.491 68.345L180.961 47.3529H175.198C171.976 47.3529 169.389 47.4436 169.389 47.5343Z" fill="#666666"/>
<path d="M235.643 78.6367V109.921H254.022H272.401V104.707V99.4928H259.24H246.08V91.7852V84.0775H256.518H266.955V78.6367V73.196H256.518H246.08V65.4883V57.7806H259.24H272.401V52.5666V47.3526H254.022H235.643V78.6367Z" fill="#666666"/>
<path d="M335.933 52.5666V57.7806H343.648H351.362V83.8508V109.921H356.581H361.8V83.8508V57.7806H369.741H377.683V52.5666V47.3526H356.808H335.933V52.5666Z" fill="#666666"/>
<path d="M384.943 78.6367V109.921H390.162H395.381V78.6367V47.3526H390.162H384.943V78.6367Z" fill="#666666"/>
<path d="M552.396 72.5621C546.996 74.0129 542.322 78.0028 539.599 83.5342C538.192 86.3453 538.101 86.844 538.101 91.3326C538.101 97.0453 538.873 99.6297 541.732 103.484C544.001 106.612 548.221 109.604 551.897 110.692C555.436 111.735 560.973 111.645 564.286 110.466C569.277 108.698 573.452 104.889 575.857 99.9924C577.037 97.6348 577.128 97.0453 577.128 91.786C577.128 86.5719 577.037 85.8919 575.903 83.4889C571.819 74.8291 561.654 70.0684 552.396 72.5621ZM563.65 79.363C573.77 84.3957 574.042 98.4055 564.149 103.756C561.064 105.478 556.707 105.841 553.349 104.708C550.218 103.665 546.451 100.219 545.135 97.1814C542.231 90.4258 545.362 82.4007 552.124 79.2723C555.482 77.6854 560.383 77.7308 563.65 79.363Z" fill="#666666"/>
<path d="M474.796 91.5131V109.921H477.972H481.149V105.387V100.853H485.823C491.586 100.853 494.4 100.082 497.395 97.6793C500.799 95.0496 502.251 91.7398 502.205 87.0245C502.16 82.6719 501.389 80.7677 498.575 77.7299C495.126 74.0575 493.266 73.5134 483.327 73.2867L474.796 73.1053V91.5131ZM492.812 80.7223C493.492 81.2211 494.582 82.3546 495.126 83.216C496.533 85.2563 496.397 89.4728 494.854 91.6038C492.993 94.0521 491.45 94.6415 486.05 94.8682L481.149 95.0949V87.2512V79.4528L486.322 79.6342C490.724 79.7249 491.723 79.9062 492.812 80.7223Z" fill="#666666"/>
<path d="M507.016 91.5131V109.921H509.966H512.916V105.387V100.853H515.321H517.681L522.219 105.387L526.757 109.921H530.614H534.471L529.706 105.16C527.12 102.576 525.078 100.354 525.214 100.264C525.304 100.128 526.257 99.6289 527.256 99.1301C529.706 97.8606 532.656 94.5055 533.518 91.9212C535.878 84.9842 532.792 77.7299 526.121 74.6015C523.762 73.5134 523.081 73.4227 515.321 73.2867L507.016 73.1053V91.5131ZM524.533 80.677C526.621 81.9012 528.345 84.7576 528.345 87.0699C528.345 89.0195 526.53 92.2839 524.805 93.4627C523.126 94.5962 519.859 95.0949 515.865 94.8682L513.143 94.7322L513.007 87.1152L512.916 79.5435H517.726C522.083 79.5435 522.809 79.6795 524.533 80.677Z" fill="#666666"/>
</svg>
