<svg width="181" height="181" viewBox="0 0 181 181" fill="none" xmlns="http://www.w3.org/2000/svg">
<g clip-path="url(#clip0_482_175)">
<path fill-rule="evenodd" clip-rule="evenodd" d="M42.4039 0.0297852H138.357C161.737 0.0297852 180.69 18.9827 180.69 42.3622V138.316C180.69 161.695 161.737 180.648 138.357 180.648H42.4039C19.0243 180.648 0.0714111 161.695 0.0714111 138.316V42.3622C0.0714111 18.9827 19.0243 0.0297852 42.4039 0.0297852ZM154.56 129.095C156.613 129.876 158.881 129.877 160.935 129.099C158.328 125.616 155.741 122.157 153.168 118.715C146.293 109.519 139.512 100.449 132.69 91.4001C132.278 91.0323 131.949 90.5818 131.724 90.0782C131.499 89.5746 131.383 89.0291 131.383 88.4774C131.383 87.9257 131.499 87.3802 131.724 86.8766C131.949 86.3729 132.278 85.9225 132.69 85.5547C136.75 80.5261 140.636 75.3732 144.526 70.2149C145.522 68.8942 146.518 67.5733 147.518 66.2539L158.463 51.7388C156.535 50.989 154.398 50.9744 152.459 51.6977C150.521 52.421 148.916 53.8318 147.95 55.6616C142.989 62.6828 137.77 69.5323 132.452 76.5117C130.58 78.9696 128.695 81.4435 126.805 83.9468C124.593 80.9769 122.377 78.0587 120.178 75.1638C115.205 68.6135 110.321 62.1826 105.778 55.5438C104.651 53.7028 102.923 52.3071 100.886 51.5924C98.849 50.8777 96.6279 50.8878 94.5975 51.621L122.804 88.3797L92.4794 129.06C94.4489 129.77 96.6092 129.739 98.5578 128.974C100.506 128.209 102.11 126.762 103.071 124.902C108.638 116.758 114.608 108.838 120.677 100.787C122.647 98.1725 124.628 95.5447 126.609 92.8909L129.551 96.8137C131.577 99.6004 133.627 102.37 135.677 105.138C140.494 111.645 145.308 118.147 149.793 124.862C150.811 126.809 152.507 128.314 154.56 129.095ZM20.6328 83.5548C20.3754 85.0191 20.121 86.4669 19.8264 87.8696C19.8267 90.145 19.8399 92.4204 19.8659 94.6957C19.9471 95.0672 20.049 95.4456 20.1522 95.8289C20.3976 96.7406 20.6504 97.6797 20.6504 98.6185C21.3063 107.027 24.6955 114.991 30.3008 121.293C35.9666 126.622 43.1724 130.023 50.8877 131.009C58.6031 131.996 66.4327 130.517 73.257 126.785C77.3874 124.31 80.9029 120.931 83.5392 116.902C86.1755 112.872 87.864 108.298 88.4776 103.522C84.7509 102.385 82.7895 103.051 81.5732 106.974C80.6453 110.831 78.7716 114.397 76.1211 117.349C73.4706 120.301 70.1267 122.546 66.3914 123.882C43.3639 131.571 25.3578 116.507 26.378 91.5574H89.1451C89.694 77.592 86.9085 65.1956 75.7673 56.4469C56.741 41.5 29.0845 51.5434 22.2979 75.6694C21.5668 78.2398 21.0951 80.9239 20.6328 83.5548ZM83.2213 86.1826H26.4563L26.4168 86.1043C27.1626 67.4703 39.2845 54.9173 56.2316 55.1529C71.4522 55.2701 82.8678 68.0982 83.2213 86.1826Z" fill="#F6F1F1"/>
</g>
<defs>
<clipPath id="clip0_482_175">
<rect width="180.618" height="180.618" fill="white" transform="translate(0.0714111 0.0297852)"/>
</clipPath>
</defs>
</svg>
