<svg width="182" height="181" viewBox="0 0 182 181" fill="none" xmlns="http://www.w3.org/2000/svg">
<g clip-path="url(#clip0_482_154)">
<path fill-rule="evenodd" clip-rule="evenodd" d="M43.3185 0.0297852H139.272C162.652 0.0297852 181.604 18.9827 181.604 42.3622V138.316C181.604 161.695 162.652 180.648 139.272 180.648H43.3185C19.939 180.648 0.986084 161.695 0.986084 138.316V42.3622C0.986084 18.9827 19.939 0.0297852 43.3185 0.0297852ZM62.2989 142.603L48.4773 150.968L48.4766 150.966C52.4778 159.453 60.3594 166.485 73.9375 166.485C88.9726 166.485 99.2777 158.483 99.2777 140.903V82.9515H82.3038V140.663C82.3038 149.15 78.7874 151.331 73.2101 151.331C67.3915 151.331 64.9658 147.331 62.2989 142.603ZM122.317 141.147L108.497 149.149C113.468 158.97 123.652 166.487 139.413 166.487C155.538 166.487 167.541 158.122 167.541 142.844C167.541 128.659 159.417 122.356 144.99 116.172L140.747 114.354C133.472 111.201 130.32 109.139 130.32 104.047C130.32 99.9254 133.472 96.7731 138.444 96.7731C143.294 96.7731 146.444 98.834 149.355 104.047L162.57 95.5602C156.994 85.7398 149.234 81.9807 138.444 81.9807C123.288 81.9807 113.588 91.6805 113.588 104.411C113.588 118.233 121.712 124.78 133.958 129.993L138.2 131.812C145.96 135.206 150.567 137.268 150.567 143.087C150.567 147.937 146.083 151.453 139.049 151.453C130.684 151.453 125.956 147.089 122.317 141.147Z" fill="#F6F1F1"/>
</g>
<defs>
<clipPath id="clip0_482_154">
<rect width="180.618" height="180.618" fill="white" transform="translate(0.986084 0.0297852)"/>
</clipPath>
</defs>
</svg>
