<svg width="181" height="181" viewBox="0 0 181 181" fill="none" xmlns="http://www.w3.org/2000/svg">
<path d="M93.8802 169.676L89.6413 168.27C89.6413 168.27 90.2058 146.822 82.4448 145.315C77.3649 139.4 83.1955 -107.218 101.765 144.474C98.2421 146.261 95.5462 149.341 94.2415 153.07C93.5422 158.578 93.4211 164.143 93.8802 169.676Z" fill="#F6F1F1"/>
<path d="M96.1717 148.956C107.458 140.46 116.101 128.935 121.097 115.721C126.093 102.507 127.236 88.1471 124.393 74.3094C116.096 37.706 96.4482 25.6723 94.3316 21.0778C92.5054 18.2169 90.9466 15.1938 89.675 12.0469L91.2385 114.034C91.2385 114.034 87.9987 145.202 96.1717 148.956Z" fill="#F6F1F1"/>
<path d="M87.485 150.31C87.485 150.31 52.9361 126.779 54.9342 85.1521C55.1205 72.6028 57.9979 60.2396 63.3719 48.8976C68.7459 37.5556 76.4914 27.499 86.0852 19.407C87.2063 18.4545 88.097 17.2603 88.6904 15.9142C89.2838 14.568 89.5645 13.1049 89.5113 11.6348C91.6618 16.2631 91.3118 80.7382 91.5376 88.2791C92.4125 117.613 89.9064 144.773 87.485 150.31Z" fill="#F6F1F1"/>
</svg>
