<svg width="181" height="181" viewBox="0 0 181 181" fill="none" xmlns="http://www.w3.org/2000/svg">
<g clip-path="url(#clip0_482_180)">
<mask id="mask0_482_180" style="mask-type:luminance" maskUnits="userSpaceOnUse" x="0" y="0" width="181" height="181">
<path d="M0 0.0297852H180.618V180.648H0V0.0297852Z" fill="white"/>
</mask>
<g mask="url(#mask0_482_180)">
<path d="M84.3939 0.0758805C84.0026 0.113509 82.7684 0.241447 81.6546 0.324231C56.0068 2.64217 31.9845 16.4821 16.7524 37.7574C8.34081 49.4353 2.87274 62.9713 0.812783 77.215C0.0903092 82.182 0 83.642 0 90.37C0 97.0981 0.0903092 98.5656 0.812783 103.525C5.71958 137.444 29.8622 165.936 62.5918 176.495C68.4544 178.384 74.633 179.671 81.6546 180.453C84.394 180.755 96.2244 180.755 98.9638 180.453C111.088 179.106 121.368 176.104 131.498 170.933C133.056 170.143 133.357 169.925 133.146 169.752C128.191 163.217 123.286 156.645 118.433 150.034L103.991 130.52L85.8991 103.736C79.8794 94.7772 73.8035 85.8565 67.6717 76.9742C67.604 76.9516 67.5362 88.8498 67.4986 103.39C67.4459 128.827 67.4233 129.85 67.1073 130.452C66.799 131.155 66.2489 131.724 65.557 132.055C64.9925 132.341 64.5033 132.394 61.8317 132.394H58.7762L57.9635 131.882C57.4605 131.565 57.0524 131.118 56.7819 130.588L56.4056 129.798L56.4433 94.3963L56.4959 58.9801L57.0453 58.2877C57.4152 57.8548 57.8585 57.4905 58.3548 57.2115C59.0773 56.8578 59.3557 56.8277 62.4187 56.8277C66.016 56.8277 66.6181 56.9632 67.5513 57.9867C67.8147 58.2726 77.6132 73.0382 89.3384 90.8141L124.965 144.789L139.264 166.448L139.994 165.974C146.876 161.399 153.115 155.924 158.545 149.696C169.926 136.671 177.307 120.64 179.806 103.525C180.528 98.5581 180.618 97.0981 180.618 90.37C180.618 83.642 180.528 82.182 179.806 77.215C174.899 43.3039 150.756 14.8038 118.027 4.24516C111.91 2.30027 105.611 0.981511 99.2272 0.309179C97.5264 0.128561 85.8615 -0.0671091 84.4015 0.0834063L84.3939 0.0758805ZM121.368 54.713C121.788 54.9243 122.161 55.2167 122.468 55.5732C122.774 55.9297 123.006 56.3433 123.152 56.7901C123.287 57.2416 123.325 67.0627 123.287 89.1885L123.234 120.932L117.643 112.353L112.029 103.773V80.6994C112.029 65.7758 112.096 57.3921 112.202 56.9857C112.327 56.5157 112.546 56.0759 112.846 55.693C113.146 55.3101 113.521 54.9921 113.948 54.7581C114.678 54.3818 114.941 54.3517 117.711 54.3517C120.322 54.3517 120.781 54.3969 121.368 54.713Z" fill="#F6F1F1"/>
</g>
</g>
<defs>
<clipPath id="clip0_482_180">
<rect width="180.618" height="180.618" fill="white" transform="translate(0 0.0297852)"/>
</clipPath>
</defs>
</svg>
