<svg width="182" height="181" viewBox="0 0 182 181" fill="none" xmlns="http://www.w3.org/2000/svg">
<path d="M68.7178 68.0773V128.615C68.7174 131.254 68.0231 133.846 66.7047 136.132C65.3862 138.418 63.4899 140.317 61.206 141.639C58.922 142.961 56.3306 143.659 53.6917 143.663C51.0528 143.668 48.4591 142.978 46.1706 141.664L34.3702 134.891C31.0683 132.874 28.3402 130.042 26.4477 126.667C24.5553 123.292 23.562 119.487 23.5632 115.618V65.6841C23.5633 61.816 24.5572 58.0128 26.4496 54.6392C28.342 51.2655 31.0694 48.4347 34.3702 46.4181L79.5248 18.8211C83.0691 16.6559 87.1419 15.5103 91.2951 15.5103C95.4484 15.5103 99.5212 16.6559 103.065 18.8211L148.22 46.4181C151.522 48.4354 154.25 51.2674 156.143 54.6424C158.035 58.0175 159.028 61.8222 159.027 65.6916V115.618C159.027 119.486 158.033 123.289 156.141 126.663C154.248 130.036 151.521 132.867 148.22 134.884L103.065 162.481C99.5212 164.646 95.4484 165.791 91.2951 165.791C87.1419 165.791 83.0691 164.646 79.5248 162.481" stroke="#F6F1F1" stroke-width="16.1322" stroke-linecap="round" stroke-linejoin="round"/>
<path d="M128.924 68.0781H102.584C99.5899 68.0781 96.7186 69.2675 94.6015 71.3845C92.4845 73.5015 91.2952 76.3728 91.2952 79.3668C91.2952 82.3607 92.4845 85.232 94.6015 87.3491C96.7186 89.4661 99.5899 90.6554 102.584 90.6554H117.635C120.629 90.6554 123.501 91.8448 125.618 93.9618C127.735 96.0788 128.924 98.9501 128.924 101.944C128.924 104.938 127.735 107.809 125.618 109.926C123.501 112.043 120.629 113.233 117.635 113.233H91.2952" stroke="#F6F1F1" stroke-width="16.1322" stroke-linecap="round" stroke-linejoin="round"/>
</svg>
