<svg width="181" height="181" viewBox="0 0 181 181" fill="none" xmlns="http://www.w3.org/2000/svg">
<path d="M132.42 130.323C133.527 121.104 133.196 119.751 140.062 121.246L141.805 121.398C147.085 121.638 153.992 120.549 158.051 118.663C166.787 114.609 171.965 107.843 163.353 109.62C143.706 113.674 142.355 107.02 142.355 107.02C163.102 76.2377 171.775 37.1606 164.288 27.5949C143.869 1.50544 108.526 13.8425 107.935 14.1614L107.746 14.1967C103.864 13.391 99.5189 12.9098 94.638 12.8308C85.7468 12.684 79.0004 15.1619 73.8824 19.0424C73.8824 19.0424 10.8311 -6.93424 13.7647 51.7103C14.3884 64.1857 31.6459 146.109 52.2308 121.364C59.7547 112.316 67.0245 104.665 67.0245 104.665C70.6341 107.063 74.9576 108.288 79.49 107.847L79.8414 107.548C79.7313 108.671 79.7793 109.771 79.9811 111.072C74.6797 116.997 76.2375 118.037 65.636 120.218C54.909 122.428 61.2109 126.364 65.3242 127.392C70.3124 128.64 81.8508 130.406 89.6484 119.493L89.338 120.738C91.4179 122.403 91.2782 132.699 91.5717 140.055C91.8666 147.413 92.3591 154.278 93.8591 158.326C95.3591 162.373 97.1286 172.798 111.062 169.812C122.706 167.323 131.608 163.732 132.42 130.323Z" fill="#1E1E20"/>
<path d="M106.525 177.093C100.363 177.093 96.3498 174.709 93.9129 172.408C90.2342 168.937 88.7751 164.465 87.9031 161.794L87.5263 160.679C85.7709 155.941 85.1755 149.118 84.8227 140.333C84.7691 139.013 84.7324 137.654 84.6915 136.214C84.6618 135.16 84.6251 133.837 84.5715 132.455C82.3514 133.513 79.9949 134.258 77.5697 134.667C73.225 135.409 68.5543 135.169 63.6847 133.952C60.2487 133.092 56.6787 131.312 54.6439 128.561C48.7131 133.756 43.0561 133.051 39.9743 132.023C34.5374 130.21 29.672 125.114 25.0987 116.449C21.8405 110.275 18.6895 102.232 15.7319 92.5407C10.5815 75.6642 7.30916 57.8888 7.01848 52.0525C6.1041 33.7861 11.0217 20.7223 21.6316 13.228C38.3685 1.406 63.727 8.3584 72.9724 11.515C79.184 7.77139 86.492 5.94969 94.7496 6.08092C99.1847 6.15288 103.408 6.54234 107.331 7.24224C111.423 5.95533 119.506 4.10822 128.758 4.22393C145.805 4.42713 159.932 11.0705 169.608 23.4358C176.513 32.2579 173.099 50.784 170.45 61.0425C166.722 75.4723 160.19 90.8192 152.167 104.179C154.345 104.195 157.502 103.934 161.989 103.007C170.842 101.179 173.432 105.926 174.134 108.051C176.949 116.577 164.712 123.02 160.895 124.792C156.005 127.063 148.031 128.446 141.5 128.147L141.215 128.128L139.499 127.977L139.33 129.408L139.166 130.806C138.727 147.738 136.309 158.461 131.332 165.546C126.115 172.974 118.865 175.055 112.478 176.424C110.3 176.889 108.32 177.093 106.525 177.093ZM93.5573 115.469C97.5351 118.653 97.8837 124.643 98.1955 135.837C98.235 137.234 98.2717 138.556 98.3211 139.791C98.4707 143.53 98.822 152.286 100.194 155.986C100.387 156.509 100.56 157.04 100.744 157.603C102.272 162.282 103.038 164.629 109.646 163.216C115.193 162.027 118.045 160.96 120.278 157.782C123.522 153.162 125.336 143.869 125.669 130.16L132.418 130.324L125.716 129.52L125.913 127.846C126.555 122.329 127.018 118.344 130.705 115.708C133.664 113.594 137.036 113.799 139.721 114.283C136.77 112.053 135.955 109.438 135.737 108.366L135.174 105.593L136.756 103.247C145.867 89.7284 153.38 73.1143 157.371 57.663C161.471 41.7869 160.221 33.3557 158.971 31.7612C142.42 10.6133 113.72 19.3451 110.723 20.3357L110.217 20.6094L107.677 21.0821L106.376 20.8126C102.789 20.0676 98.8037 19.6555 94.5323 19.5864C87.8212 19.4735 82.4069 21.0595 77.9677 24.4278L74.8873 26.7631L71.313 25.2914C63.6762 22.1687 41.2457 15.8908 29.4095 24.274C22.8395 28.9277 19.8466 38.0461 20.5126 51.3766C20.7328 55.7778 23.7229 72.4384 28.656 88.5967C35.4729 110.927 41.6676 118.345 44.2541 119.207C44.7056 119.36 45.8768 118.45 47.0424 117.05C51.9022 111.224 56.9344 105.544 62.1325 100.018L66.0412 95.9047L70.7669 99.0444C72.6719 100.31 74.773 101.028 76.9305 101.164L88.2008 91.5515L86.5682 108.214C86.5315 108.588 86.5132 109.097 86.6599 110.042L87.151 113.2L85.0202 115.582L84.7747 115.859L90.9665 118.716L93.5573 115.469Z" fill="#1E1E20"/>
<path d="M163.354 109.62C143.704 113.674 142.354 107.021 142.354 107.021C163.101 76.2368 171.773 37.1583 164.289 27.5954C143.871 1.50737 108.525 13.8445 107.935 14.1648L107.744 14.1986C103.862 13.3929 99.5176 12.9131 94.6339 12.8341C85.7427 12.6888 78.9991 15.1652 73.8811 19.0457C73.8811 19.0457 10.8283 -6.92948 13.7606 51.7136C14.3843 64.1904 31.6418 146.114 52.2267 121.369C59.7505 112.321 67.019 104.67 67.019 104.67C70.63 107.068 74.9521 108.292 79.4831 107.852L79.8359 107.553C79.7258 108.676 79.7766 109.775 79.977 111.076C74.6741 117.002 76.232 118.042 65.6305 120.223C54.9035 122.433 61.2054 126.368 65.3201 127.397C70.3068 128.644 81.8467 130.411 89.6429 119.498L89.331 120.742C91.4096 122.407 92.8686 131.568 92.6245 139.872C92.379 148.177 92.2153 153.879 93.8536 158.332C95.4904 162.785 97.1216 172.804 111.057 169.818C122.702 167.324 128.735 160.857 129.576 150.07C130.172 142.401 131.52 143.536 131.606 136.679L132.688 133.434C133.935 123.038 132.885 119.685 140.061 121.245L141.804 121.397C147.084 121.637 153.994 120.548 158.051 118.662C166.785 114.611 171.965 107.844 163.354 109.62Z" fill="#1E1E20"/>
<path d="M107.229 172.931C95.6132 172.931 91.9331 163.732 90.4274 159.97C88.2233 154.457 87.7478 133.062 88.2388 115.517C88.2461 115.221 88.3119 114.929 88.4324 114.659C88.5528 114.389 88.7256 114.145 88.9407 113.942C89.1558 113.738 89.409 113.58 89.6857 113.475C89.9624 113.37 90.2572 113.32 90.553 113.33C90.8485 113.338 91.1396 113.404 91.4095 113.525C91.6794 113.645 91.9229 113.818 92.1261 114.033C92.3292 114.247 92.488 114.5 92.5934 114.776C92.6988 115.053 92.7486 115.347 92.7402 115.642C92.1743 135.879 92.9772 154.217 94.6085 158.298C97.1541 164.661 101.015 170.226 111.929 167.888C122.291 165.665 126.172 161.737 127.9 151.717C129.227 144.028 131.85 122.153 132.173 117.837C132.194 117.542 132.274 117.254 132.407 116.99C132.54 116.726 132.724 116.49 132.948 116.297C133.172 116.104 133.432 115.958 133.713 115.865C133.994 115.773 134.291 115.737 134.586 115.76C135.181 115.805 135.734 116.084 136.123 116.536C136.513 116.989 136.707 117.577 136.663 118.173C136.326 122.667 133.715 144.499 132.338 152.483C130.298 164.318 125.021 169.685 112.873 172.29C110.809 172.732 108.934 172.93 107.229 172.931ZM44.2441 128.001C43.2288 127.997 42.2207 127.831 41.2583 127.507C33.7132 124.989 26.5266 112.702 19.8974 90.981C14.8513 74.4474 11.6538 57.1898 11.373 51.5808C10.5419 34.9526 14.8231 23.1884 24.101 16.617C42.4549 3.6125 73.3308 15.9961 74.636 16.5295C75.189 16.7554 75.6295 17.1916 75.8608 17.7423C76.0921 18.293 76.0952 18.9131 75.8693 19.466C75.6434 20.0189 75.2072 20.4595 74.6565 20.6908C74.1058 20.9221 73.4858 20.9251 72.9328 20.6993C72.6351 20.5779 43.0278 8.71638 26.6945 20.2971C18.7614 25.9217 15.1194 36.3722 15.8687 51.3564C16.1044 56.0821 19.0916 72.9248 24.2026 89.6659C30.1206 109.057 36.8557 121.292 42.6821 123.236C43.5965 123.54 46.3791 124.467 50.3569 119.684C54.9958 114.113 59.8086 108.689 64.7881 103.42C65.2047 103.004 65.7675 102.768 66.356 102.762C66.9445 102.756 67.5118 102.981 67.9367 103.388C68.3616 103.795 68.6102 104.353 68.6294 104.941C68.6485 105.529 68.4367 106.101 68.0392 106.535C67.9715 106.606 61.1997 113.685 53.8197 122.564C50.3245 126.767 46.9746 128.001 44.2441 128.001ZM142.214 109.029C141.806 109.028 141.406 108.917 141.056 108.706C140.706 108.496 140.42 108.194 140.229 107.834C140.037 107.473 139.947 107.068 139.968 106.66C139.989 106.252 140.121 105.858 140.349 105.519C161.322 74.398 168.683 36.7941 162.378 28.7368C154.443 18.5968 143.237 13.301 129.071 12.9948C118.583 12.769 110.246 15.4472 108.883 15.9143L108.54 16.054C107.17 16.4844 106.119 15.7337 105.722 14.856C105.496 14.3531 105.462 13.7849 105.626 13.2585C105.79 12.7321 106.141 12.284 106.613 11.9986C106.677 11.9605 106.883 11.873 107.218 11.7502C109.533 10.9021 117.997 8.3622 128.48 8.48214C144.154 8.64864 157.102 14.6923 165.922 25.9626C170.094 31.2951 170.104 43.58 165.949 59.6691C161.712 76.0729 153.741 93.7016 144.081 108.037C143.649 108.682 142.938 109.029 142.214 109.029ZM143.287 123.436C139.705 123.436 136.495 122.931 134.573 121.779C132.598 120.595 132.221 118.987 132.171 118.133C131.632 108.665 136.856 107.017 139.52 106.264C139.149 105.703 138.621 105.042 138.075 104.361C136.522 102.419 134.394 99.7608 132.754 95.7843C132.497 95.1635 131.693 93.7199 130.762 92.0478C125.712 82.9915 115.203 64.1465 121.954 54.4961C125.078 50.03 131.299 48.2718 140.466 49.2525C137.769 41.0372 124.928 15.3386 94.4589 14.8391C85.2953 14.6867 77.7799 17.5046 72.1328 23.2068C59.4895 35.9756 59.9467 59.0793 59.9537 59.3107C59.9615 59.6063 59.911 59.9005 59.8051 60.1765C59.6992 60.4526 59.5399 60.705 59.3364 60.9195C59.1329 61.134 58.8892 61.3063 58.6191 61.4266C58.349 61.5469 58.0579 61.6129 57.7623 61.6206C57.4667 61.6284 57.1725 61.5779 56.8965 61.472C56.6205 61.3661 56.368 61.2068 56.1535 61.0033C55.939 60.7999 55.7667 60.5561 55.6464 60.286C55.5261 60.0159 55.4601 59.7248 55.4524 59.4292C55.4241 58.4034 54.9528 34.1582 68.9338 20.0375C75.477 13.4294 84.0903 10.167 94.5337 10.3377C114.026 10.658 126.574 20.568 133.666 28.8243C141.397 37.8228 145.187 47.7483 145.499 51.0615C145.732 53.5253 143.964 54.0177 143.607 54.0911L142.794 54.1095C133.798 52.6687 128.027 53.6692 125.641 57.0784C120.506 64.4174 130.447 82.2436 134.692 89.8564C135.775 91.798 136.557 93.202 136.916 94.0685C138.31 97.4494 140.129 99.7213 141.589 101.547C142.874 103.153 143.988 104.546 144.386 106.18C144.571 106.504 147.194 110.385 162.759 107.172C166.661 106.367 169.001 107.055 169.716 109.218C171.123 113.472 163.229 118.435 158.859 120.464C154.943 122.284 148.694 123.436 143.287 123.436ZM136.66 117.762C137.154 118.26 139.625 119.119 144.741 118.899C149.291 118.705 154.088 117.715 156.967 116.379C160.648 114.669 163.107 112.757 164.379 111.452L163.674 111.581C153.721 113.636 146.682 113.362 142.75 110.767C142.486 110.593 142.232 110.404 141.988 110.201C141.562 110.369 141.169 110.479 140.888 110.558C138.658 111.183 136.352 111.831 136.66 117.762ZM72.3684 130.342C69.8962 130.342 67.2942 130.004 64.6371 129.34C61.8841 128.651 57.243 126.578 57.3136 123.173C57.394 119.354 62.9494 118.208 65.0407 117.777C72.5956 116.221 73.0881 115.597 75.4488 112.599C76.1374 111.725 76.9939 110.637 78.1623 109.334C79.8965 107.392 81.7916 106.408 83.7953 106.408C85.1909 106.408 86.3353 106.881 87.0916 107.196C89.5018 108.195 91.5125 110.611 92.3394 113.499C93.0859 116.105 92.7289 118.614 91.3376 120.563C86.7699 126.959 80.2098 130.342 72.3684 130.342ZM62.1776 123.367C62.8563 123.892 64.2166 124.593 65.7307 124.971C68.0322 125.547 70.2645 125.839 72.3698 125.839C78.7846 125.839 83.935 123.183 87.6758 117.945C88.4561 116.853 88.2219 115.466 88.0131 114.737C87.5756 113.208 86.4891 111.818 85.3701 111.354C84.7633 111.103 84.2596 110.911 83.7968 110.911C83.5484 110.911 82.7921 110.911 81.5193 112.335C80.641 113.323 79.7966 114.34 78.9878 115.386C76.0471 119.119 74.6995 120.387 65.9508 122.188C63.8158 122.626 62.7208 123.072 62.1776 123.367ZM79.4901 112.981C78.9526 112.98 78.4332 112.787 78.0256 112.437C77.618 112.086 77.3492 111.602 77.2677 111.071C77.2117 110.697 77.174 110.321 77.1548 109.943C71.4202 109.836 65.8873 107.375 61.6865 102.992C56.3752 97.4508 53.958 89.7731 55.0559 81.9289C56.2482 73.4102 55.8023 65.8906 55.5624 61.8507C55.4961 60.7274 55.4481 59.9161 55.451 59.3544C55.4552 58.6418 55.4693 56.7524 61.7853 53.5507C64.0317 52.4119 68.5359 50.4251 73.4563 49.9157C81.6082 49.0733 86.9816 52.704 88.5902 60.1404C92.9321 80.2173 88.9345 89.0972 86.015 95.5825C85.4717 96.7904 84.9581 97.9306 84.5474 99.0355L84.1848 100.009C82.6425 104.145 81.309 107.718 81.7182 110.386C81.7632 110.678 81.7501 110.977 81.6797 111.264C81.6093 111.551 81.4831 111.822 81.3081 112.06C81.1332 112.298 80.913 112.5 80.6601 112.653C80.4073 112.806 80.1267 112.908 79.8344 112.953L79.4901 112.981ZM59.9678 59.9781L60.0553 61.5854C60.3037 65.7819 60.7665 73.5908 59.5135 82.554C58.609 89.0238 60.5845 95.3384 64.9362 99.8765C68.375 103.463 72.9004 105.443 77.5513 105.443H77.6473C78.168 103.249 79.0329 100.932 79.9643 98.4358L80.3241 97.4678C80.7883 96.2204 81.3316 95.0125 81.9073 93.734C84.7168 87.4914 88.2149 79.7206 84.1862 61.0929C83.389 57.4029 81.4544 55.268 78.2752 54.5638C71.7447 53.1217 62.0125 58.0337 59.9678 59.9781ZM73.5565 59.0228C73.4437 59.8187 75.0142 61.9438 77.0631 62.2274C79.1077 62.5139 80.8575 60.8516 80.9689 60.0557C81.0804 59.2599 79.5113 58.3822 77.4624 58.0972C75.4149 57.8121 73.6652 58.227 73.5565 59.0228ZM77.533 63.0106L76.9587 62.971C75.6887 62.7947 74.4046 61.9946 73.5255 60.829C73.2165 60.4198 72.7127 59.6268 72.8129 58.9184C72.9554 57.8799 74.2226 57.2576 76.1995 57.2576C76.6412 57.2576 77.1012 57.29 77.564 57.3549C78.6449 57.5045 79.6482 57.8164 80.389 58.2298C81.6731 58.9466 81.7676 59.7467 81.7098 60.1602C81.5517 61.3074 79.7272 63.0106 77.533 63.0106ZM74.303 59.1555C74.3665 59.6465 75.5829 61.2665 77.1661 61.4852L77.5344 61.5106C78.9963 61.5106 80.0884 60.3605 80.2168 59.9838C80.0814 59.727 79.1416 59.0892 77.3594 58.8408C76.9757 58.7858 76.5885 58.7579 76.2009 58.7576C75.0551 58.7576 74.4469 59.0158 74.303 59.1555ZM135.833 57.3987C135.945 58.1945 134.376 60.3196 132.328 60.6047C130.282 60.8897 128.531 59.2289 128.418 58.433C128.311 57.6372 129.88 56.7581 131.926 56.4744C133.972 56.188 135.72 56.6042 135.833 57.3987ZM131.855 61.0111C129.885 61.0111 128.185 59.4786 128.045 58.4838C127.883 57.29 129.849 56.3827 131.872 56.1019C132.318 56.0398 132.76 56.0088 133.185 56.0088C134.932 56.0088 136.089 56.521 136.204 57.3479C136.279 57.8827 135.868 58.7082 135.162 59.4532C134.694 59.9429 133.714 60.7909 132.377 60.9758L131.855 61.0111ZM133.186 56.7595C132.797 56.7595 132.39 56.7891 131.978 56.8455C129.945 57.1292 128.731 57.9448 128.79 58.3822C128.858 58.8634 130.156 60.2618 131.857 60.2618L132.276 60.2321C133.386 60.0783 134.22 59.353 134.618 58.9354C135.243 58.2792 135.492 57.6611 135.462 57.4509C135.423 57.1715 134.672 56.7595 133.186 56.7595ZM138.781 103.104C138.373 103.104 137.973 102.993 137.623 102.783C137.273 102.574 136.987 102.273 136.795 101.913C136.603 101.553 136.513 101.147 136.533 100.74C136.554 100.333 136.685 99.9385 136.913 99.5999C141.708 92.4387 140.83 85.1363 139.982 78.0739C139.619 75.0654 139.247 71.954 139.343 68.9681C139.441 65.8962 139.832 63.3619 140.209 60.9109C140.656 58.0069 141.08 55.2637 140.905 52.0069C140.889 51.7118 140.931 51.4163 141.029 51.1375C141.128 50.8587 141.28 50.6019 141.477 50.3819C141.675 50.1619 141.914 49.983 142.18 49.8553C142.447 49.7276 142.736 49.6537 143.031 49.6377C143.326 49.6218 143.622 49.6642 143.901 49.7624C144.179 49.8606 144.436 50.0128 144.656 50.2103C144.876 50.4078 145.055 50.6466 145.183 50.9133C145.31 51.1799 145.384 51.469 145.4 51.7642C145.601 55.4867 145.122 58.591 144.66 61.5952C144.303 63.9136 143.933 66.3111 143.844 69.1121C143.758 71.7564 144.095 74.5645 144.452 77.5362C145.355 85.046 146.378 93.5576 140.655 102.105C140.449 102.412 140.17 102.665 139.843 102.839C139.516 103.013 139.151 103.104 138.781 103.104Z" fill="#F6F1F1"/>
</svg>
