<svg width="181" height="181" viewBox="0 0 181 181" fill="none" xmlns="http://www.w3.org/2000/svg">
<g clip-path="url(#clip0_482_159)">
<path d="M107.092 90.6849C107.092 95.1466 105.32 99.4256 102.166 102.581C99.0115 105.737 94.7332 107.511 90.2716 107.513C85.8086 107.513 81.5284 105.74 78.3727 102.584C75.2169 99.428 73.444 95.1479 73.444 90.6849C73.444 86.2233 75.2158 81.9442 78.37 78.7887C81.5242 75.6331 85.8024 73.8593 90.2641 73.8573C94.727 73.8573 99.0072 75.6302 102.163 78.786C105.319 81.9418 107.092 86.2219 107.092 90.6849ZM127.02 10.2344C116.89 10.2344 103.637 17.4592 90.2339 29.967C76.8381 17.5269 63.5777 10.385 53.4555 10.385C50.37 10.385 47.5628 11.0849 45.132 12.4771C34.7841 18.4451 32.4662 37.0412 37.8095 60.3786C14.901 67.4529 0 78.7641 0 90.6849C0 102.651 14.9763 113.992 37.9524 121.014C32.6543 144.441 35.0174 163.068 45.3879 169.028C47.7961 170.435 50.5807 171.098 53.6813 171.098C63.8035 171.098 77.0639 163.873 90.4672 151.35C103.863 163.798 117.124 170.94 127.246 170.94C130.331 170.94 133.138 170.262 135.569 168.87C145.91 162.91 148.235 144.314 142.892 120.969C165.717 113.955 180.618 102.621 180.618 90.6849C180.618 78.7189 165.642 67.3776 142.666 60.341C147.964 36.9359 145.601 18.2945 135.23 12.3266C132.724 10.9167 129.896 10.1949 127.02 10.2344ZM126.982 18.4375V18.4827C128.676 18.4827 130.038 18.8138 131.182 19.4385C136.194 22.3133 138.369 33.2482 136.675 47.3139C136.269 50.7758 135.607 54.4258 134.794 58.151C127.099 56.289 119.287 54.9464 111.411 54.1323C106.721 47.6602 101.605 41.508 96.0965 35.7167C108.078 24.5786 119.329 18.4676 126.99 18.4451L126.982 18.4375ZM53.4555 18.5881C61.0716 18.5881 72.3753 24.6689 84.3864 35.7468C79.2237 41.1654 74.0761 47.3139 69.1844 54.1247C61.2907 54.9294 53.4625 56.2823 45.7567 58.1736C44.9487 54.6441 44.3108 51.0778 43.8451 47.487C42.1142 33.4289 44.2515 22.5014 49.2185 19.589C50.6484 18.9117 52.2288 18.6257 53.4555 18.5881ZM90.1963 41.5416C93.6205 45.0637 97.0448 49.0072 100.431 53.3119C97.12 53.1614 93.7334 53.0561 90.3092 53.0561C86.8474 53.0561 83.4231 53.1313 80.0742 53.3119C83.3855 49.0072 86.8097 45.0712 90.1963 41.5416ZM90.3092 61.3043C95.8783 61.3043 101.425 61.5602 106.881 62.0042C109.936 66.3842 112.917 71.0577 115.784 76.0021C118.584 80.8186 121.127 85.7104 123.445 90.6473C121.127 95.5767 118.584 100.506 115.822 105.323C112.962 110.29 110.004 115.016 106.941 119.396C95.8949 120.362 84.7859 120.375 73.7375 119.433C70.5779 114.892 67.6077 110.222 64.8345 105.435C62.0349 100.619 59.4912 95.7272 57.1733 90.7903C59.4988 85.7797 62.0424 80.8732 64.7969 76.0849C67.6566 71.1179 70.6143 66.4068 73.6773 62.0268C79.2078 61.538 84.7571 61.292 90.3092 61.2893V61.3043ZM62.953 63.2159C61.1469 66.0531 59.3407 68.958 57.6549 71.9457C55.9616 74.8808 54.3812 77.8309 52.876 80.781C50.8817 75.8441 49.1884 70.9222 47.7886 66.1283C52.6051 64.9995 57.685 63.991 62.953 63.2159ZM117.59 63.2159C122.821 63.991 127.863 64.9468 132.687 66.1283C131.332 70.8846 129.639 75.7764 127.72 80.6756C124.649 74.6852 121.27 68.8575 117.598 63.2159H117.59ZM140.642 68.2957C144.284 69.4246 147.746 70.6814 150.989 72.0436C164.024 77.6127 172.453 84.8976 172.453 90.6774C172.415 96.4572 163.986 103.772 150.952 109.304C147.791 110.658 144.329 111.877 140.754 113.014C138.494 105.363 135.728 97.8714 132.476 90.5871C135.863 82.9334 138.572 75.4603 140.642 68.2807V68.2957ZM39.8339 68.3259C41.926 75.5506 44.688 83.0538 48.1122 90.7526C44.8834 97.9934 42.1527 105.446 39.9392 113.059C36.2968 111.93 32.8349 110.666 29.6289 109.296C16.5943 103.75 8.16546 96.4572 8.16546 90.6774C8.16546 84.8976 16.5943 77.5675 29.6289 72.0436C32.7898 70.6889 36.2516 69.4698 39.8339 68.3259ZM127.72 100.536C129.714 105.481 131.407 110.41 132.807 115.196C127.991 116.378 122.903 117.379 117.635 118.131C121.303 112.446 124.664 106.573 127.72 100.536ZM52.876 100.687C54.3812 103.637 55.9616 106.579 57.6925 109.529C59.4235 112.464 61.192 115.339 62.9982 118.131C57.9237 117.397 52.8861 116.428 47.9015 115.226C49.2561 110.485 50.957 105.578 52.8685 100.679L52.876 100.687ZM134.862 123.166C135.705 126.876 136.367 130.451 136.773 133.875C138.504 147.933 136.367 158.861 131.4 161.781C130.294 162.458 128.856 162.744 127.163 162.744C119.547 162.744 108.243 156.671 96.232 145.585C101.395 140.167 106.542 134.026 111.434 127.223C119.765 126.334 127.645 124.972 134.862 123.166ZM45.8319 123.241C53.0567 125.002 60.9286 126.365 69.2145 127.245C74.1815 134.056 79.3366 140.242 84.5294 145.653C72.5258 156.814 61.2597 162.925 53.5985 162.925C52.1512 162.936 50.7228 162.595 49.4368 161.931C44.4246 159.072 42.2497 148.129 43.943 134.063C44.3493 130.602 45.0191 126.959 45.8319 123.241ZM80.1494 128.058C83.4608 128.208 86.8474 128.314 90.2716 128.314C93.7334 128.314 97.1576 128.238 100.507 128.058C97.1953 132.363 93.7711 136.299 90.3845 139.836C86.9602 136.299 83.536 132.363 80.1494 128.058Z" fill="#F6F1F1"/>
</g>
<defs>
<clipPath id="clip0_482_159">
<rect width="180.618" height="180.618" fill="white" transform="translate(0 0.346191)"/>
</clipPath>
</defs>
</svg>
