<svg width="181" height="181" viewBox="0 0 181 181" fill="none" xmlns="http://www.w3.org/2000/svg">
<g clip-path="url(#clip0_482_152)">
<path d="M125.296 124.676C112.596 150.64 90.3577 168.109 60.9366 173.852C56.4256 174.957 51.7947 175.498 47.1504 175.461C30.2174 175.461 14.6955 168.405 7.16032 156.849C-2.95714 141.454 -6.40017 108.815 26.9578 84.6718C27.6351 88.3547 29.018 93.4064 29.9352 96.3979C23.3868 101.263 18.0267 107.549 14.2581 114.784C8.0493 126.976 8.74073 139.154 16.0925 150.414C21.1724 158.006 29.2155 162.62 39.5588 164.031C52.4777 165.666 65.5838 163.198 77.023 156.976C94.9578 147.55 106.91 136.289 114.727 120.894C112.517 118.61 111.208 115.602 111.044 112.428C110.926 109.021 112.164 105.707 114.487 103.212C116.81 100.718 120.027 99.2463 123.433 99.1213H123.913C127.226 99.1047 130.419 100.362 132.831 102.634C135.243 104.906 136.689 108.018 136.87 111.326C137.051 114.634 135.954 117.886 133.805 120.407C131.656 122.929 128.619 124.528 125.324 124.874L125.296 124.676ZM165.752 96.1721C182.981 115.701 183.447 138.688 176.786 152.023C170.578 164.2 154.209 176.392 132.196 176.392C121.92 176.182 111.811 173.752 102.564 169.266C105.795 166.966 110.381 163.283 112.907 160.983C120.038 164.073 127.713 165.713 135.484 165.809C149.736 165.809 160.531 159.149 166.965 146.971C171.1 138.928 171.34 129.502 167.431 119.85C162.635 107.706 154.1 97.4024 143.062 90.429C128.579 80.6664 111.506 75.4619 94.0406 75.4857H89.9061C88.942 77.7127 87.3736 79.6253 85.3785 81.007C83.3834 82.3886 81.0413 83.184 78.6175 83.3031H78.18C74.8275 83.2618 71.6232 81.9153 69.2475 79.5495C66.8718 77.1837 65.5121 73.9849 65.457 70.6326C65.4018 67.2803 66.6558 64.0386 68.9524 61.5959C71.249 59.1533 74.4074 57.7022 77.7567 57.5508H78.2224C80.5564 57.5526 82.8448 58.1975 84.8362 59.4148C86.8277 60.632 88.4452 62.3746 89.511 64.451H93.194C122.544 64.451 148.311 75.7114 165.752 96.1721ZM48.9848 128.627C48.7431 126.284 49.3108 123.928 50.5934 121.953C37.7243 99.6575 30.8383 71.3935 41.4073 41.9725C48.9848 19.8608 68.0626 4.91748 88.749 4.91748C110.818 4.91748 133.805 24.2352 136.556 61.4595C133.113 60.3165 128.09 58.6373 125.07 58.0165C124.322 45.8388 114.036 15.5006 89.6662 15.9521C80.9316 16.192 68.0626 20.3265 61.4446 28.8212C53.2584 38.9615 48.4962 51.4352 47.8418 64.451C46.2906 82.298 50.4779 100.174 59.7937 115.476C60.3079 115.288 60.8562 115.211 61.4023 115.25H61.8538C65.2669 115.188 68.5648 116.485 71.0218 118.855C73.4789 121.224 74.894 124.473 74.9557 127.886C75.0175 131.299 73.7209 134.597 71.3511 137.054C68.9813 139.511 65.7326 140.926 62.3195 140.988H61.8538C58.5241 140.976 55.3274 139.68 52.9299 137.369C50.5325 135.058 49.1192 131.912 48.9848 128.585V128.627Z" fill="#F6F1F1"/>
</g>
<defs>
<clipPath id="clip0_482_152">
<rect width="180.618" height="180.618" fill="white" transform="translate(0.146973 0.346191)"/>
</clipPath>
</defs>
</svg>
