<svg width="181" height="181" viewBox="0 0 181 181" fill="none" xmlns="http://www.w3.org/2000/svg">
<g clip-path="url(#clip0_482_150)">
<path d="M90.4618 36.1567C66.3789 36.1567 51.3325 48.1933 45.3072 72.2762C54.3353 60.2383 64.8746 55.7242 76.9126 58.734C83.786 60.4471 88.6979 65.431 94.1377 70.954C102.991 79.9384 113.238 90.3394 135.616 90.3394C159.698 90.3394 174.746 78.3015 180.771 54.2129C171.741 66.2579 161.204 70.772 149.164 67.7621C142.292 66.0477 137.386 61.0651 131.939 55.5422C123.092 46.5578 112.847 36.1567 90.4618 36.1567ZM45.3072 90.3394C21.2257 90.3394 6.17791 102.377 0.152588 126.466C9.18069 114.421 19.7186 109.907 31.758 112.917C38.6314 114.631 43.5433 119.614 48.9831 125.137C57.8362 134.121 68.0835 144.522 90.4618 144.522C114.543 144.522 129.591 132.486 135.616 108.403C126.587 120.441 116.049 124.955 104.01 121.945C97.1376 120.232 92.2313 115.248 86.7845 109.725C77.937 100.741 67.6926 90.3394 45.3072 90.3394Z" fill="#F6F1F1"/>
</g>
<defs>
<clipPath id="clip0_482_150">
<rect width="180.618" height="180.618" fill="white" transform="translate(0.146973 0.0297852)"/>
</clipPath>
</defs>
</svg>
