<svg width="181" height="181" viewBox="0 0 181 181" fill="none" xmlns="http://www.w3.org/2000/svg">
<g clip-path="url(#clip0_482_170)">
<path fill-rule="evenodd" clip-rule="evenodd" d="M42.38 0.0297852H138.334C161.713 0.0297852 180.666 18.9827 180.666 42.3622V138.316C180.666 161.695 161.713 180.648 138.334 180.648H42.38C19.0005 180.648 0.0476074 161.695 0.0476074 138.316V42.3622C0.0476074 18.9827 19.0005 0.0297852 42.38 0.0297852ZM39.9319 98.3358L39.9891 90.9389L40.0758 83.571L71.641 83.4849C88.986 83.456 103.292 83.5138 103.378 83.6281C103.493 83.7142 103.579 87.0683 103.579 91.0822V98.3358H80.0701V165.136H63.4405V98.3358H39.9319ZM157.085 89.8686C153.874 86.5434 150.376 84.5079 145.789 83.3607C142.664 82.5867 135.267 82.3574 132.085 82.9593C122.28 84.8233 115.485 91.1019 113.564 100.104C113.02 102.684 113.192 109.078 113.88 111.629C114.711 114.697 116.718 118.367 118.84 120.66C122.509 124.617 126.523 127.111 135.84 131.124C143.983 134.651 146.85 136.343 148.254 138.349C149.344 139.926 149.602 140.843 149.602 142.937C149.602 145.259 148.914 146.835 147.251 148.355C143.352 151.852 135.439 152.283 129.677 149.243C127.669 148.183 124.344 145 122.824 142.678L121.735 141.073L116.546 144.083C113.679 145.746 110.64 147.495 109.837 147.954C109.006 148.441 108.26 148.9 108.175 149.014C107.974 149.358 111.213 154.146 112.876 155.981C117.119 160.683 124 164.266 131.254 165.557C134.579 166.159 141.919 166.245 145.014 165.7C155.02 164.008 162.131 158.905 164.997 151.394C167.607 144.485 166.747 135.195 162.905 129.375C159.464 124.158 153.931 120.488 141.001 114.926C133.977 111.887 131.74 110.396 130.537 107.902C129.963 106.755 129.763 105.924 129.763 104.519C129.734 99.7314 133.26 96.8641 138.736 97.2373C142.463 97.4948 144.9 98.9574 147.222 102.34C147.996 103.487 148.685 104.233 148.857 104.118C153.616 101.165 161.471 95.8897 161.414 95.6604C161.213 94.8864 158.748 91.6466 157.085 89.8686Z" fill="#F6F1F1"/>
</g>
<defs>
<clipPath id="clip0_482_170">
<rect width="180.618" height="180.618" fill="white" transform="translate(0.0476074 0.0297852)"/>
</clipPath>
</defs>
</svg>
